<?xml version="1.0" encoding="UTF-8" standalone="no"?>
<svg
   fill="none"
   viewBox="0 0 76.896 56.51658767772512"
   style="max-height: 500px"
   width="76.896"
   height="56.51658767772512"
   version="1.1"
   id="svg20"
   sodipodi:docname="AGIS-cropped.svg"
   inkscape:version="1.4.2 (ebf0e940d0, 2025-05-08)"
   xmlns:inkscape="http://www.inkscape.org/namespaces/inkscape"
   xmlns:sodipodi="http://sodipodi.sourceforge.net/DTD/sodipodi-0.dtd"
   xmlns="http://www.w3.org/2000/svg"
   xmlns:svg="http://www.w3.org/2000/svg">
  <sodipodi:namedview
     id="namedview20"
     pagecolor="#ffffff"
     bordercolor="#000000"
     borderopacity="0.25"
     inkscape:showpageshadow="2"
     inkscape:pageopacity="0.0"
     inkscape:pagecheckerboard="0"
     inkscape:deskcolor="#d1d1d1"
     inkscape:zoom="5.0045965"
     inkscape:cx="20.680988"
     inkscape:cy="3.9963261"
     inkscape:window-width="1920"
     inkscape:window-height="1011"
     inkscape:window-x="0"
     inkscape:window-y="0"
     inkscape:window-maximized="1"
     inkscape:current-layer="g11" />
  <g
     clip-path="url(#clip0_2357_1934)"
     id="g11">
    <path
       id="path1"
       d="m 340.09766,-0.00390625 c -8.56,0 -14.01563,4.90000945 -14.01563,11.56835925 0,15.8736 21.87305,10.622425 21.87305,18.765625 l 0.008,0.0039 c 0,3.4224 -3.692,5.783204 -7.625,5.783204 -4.34,0 -8.97203,-1.768054 -12.08203,-4.251954 l -3.51953,5.904297 c 3.986,3.186 9.38564,5.308594 15.30664,5.308594 8.621,0 15.5957,-5.843247 15.5957,-12.748047 0,-15.7572 -22.51758,-10.682325 -22.51758,-18.765625 0,-3.4223598 3.46096,-4.9570311 6.62696,-4.9570311 4.28,0 7.62587,1.4747381 10.67187,3.9550781 l 3.63477,-5.5507812 c -4.046,-3.1260301 -8.32603,-5.01562505 -13.95703,-5.01562505 z m -52.24024,0.00195312 c -13.661,0 -21.75195,9.56302153 -21.75195,21.54492213 0,11.982 8.09395,21.539062 21.75195,21.539062 6.566,0 11.84563,-2.184547 15.89063,-5.310547 V 20.066406 h -19.87696 v 5.779297 h 12.02149 v 7.378906 c -2.229,1.5348 -4.92516,2.416016 -8.03516,2.416016 -8.382,0 -13.66211,-6.547969 -13.66211,-14.105469 0,-7.9668 5.39563,-13.9863279 14.01563,-13.9863279 3.811,0 7.33093,1.0020169 10.08594,2.7167969 l 3.28515,-6.4921875 c -3.874,-2.42038 -8.62361,-3.77539063 -13.72461,-3.77539063 z M 184.23047,0.29492188 V 42.197266 h 6.97461 v -1.658204 c 2.479,1.6089 5.49542,2.542969 8.85742,2.542969 9.146,0 15.77148,-7.021125 15.77148,-15.640625 0,-8.6195 -6.62548,-15.640625 -15.77148,-15.640625 -3.362,0 -6.37842,0.944647 -8.85742,2.560547 V 0.29492188 Z M 100.03711,0.88476562 87.662109,34.6875 c 0.02538,0.01747 0.05064,0.0373 0.07617,0.05664 1.089454,0.825362 2.161714,1.670367 3.197266,2.5625 0.879834,0.775135 1.75181,1.55675 2.554687,2.412109 0.0787,0.0805 0.157408,0.162622 0.232422,0.246094 l 2.388672,-6.384766 h 16.947262 l 3.22461,8.617188 h 7.97657 L 109.12891,0.88476562 h -0.004 z m 210.3418,0 V 42.197266 h 7.97461 V 0.88476562 Z M 104.54688,10.269531 h 0.004 l -0.002,0.0059 6.27344,16.8125 H 98.275391 l 6.273439,-16.8125 z m 58.77929,1.53125 c -9.206,0 -15.83203,7.081025 -15.83203,15.640625 0,8.5595 6.62603,15.640625 15.83203,15.640625 3.334,0 6.32992,-0.931403 8.79492,-2.533203 v 1.648438 h 6.97657 V 12.685547 h -6.97657 v 1.666015 c -2.465,-1.6089 -5.46092,-2.550781 -8.79492,-2.550781 z m 80.67578,0 c -3.79019,0 -7.14395,1.200989 -9.77734,3.210938 0.53741,1.193921 1.07335,2.388134 1.60547,3.583984 0.4191,0.934713 0.83481,1.871367 1.24804,2.808594 1.64465,-1.946918 4.10101,-3.167969 6.92383,-3.167969 5.157,0 9.08985,4.251378 9.08985,9.205078 0,4.9536 -3.98885,9.205078 -9.08985,9.205078 -0.16842,0 -0.33625,-0.0051 -0.50195,-0.01367 0.84907,2.105818 1.685,4.217732 2.50781,6.333985 2.53405,-0.294889 4.83023,-1.144566 6.78907,-2.417969 v 1.648438 h 6.97656 V 12.685547 h -6.97656 v 1.666015 c -2.464,-1.6089 -5.46093,-2.550781 -8.79493,-2.550781 z m -98.64648,0.119141 c -4.046,0 -7.39042,2.477847 -9.73242,6.373047 v -5.609375 h -6.97461 v 29.509765 h 6.97461 V 25.609375 c 1.525,-4.7208 5.39542,-7.019531 9.73242,-7.019531 z m 73.17383,0.765625 v 29.511719 h 6.97656 V 15.046875 c -0.36512,-0.819752 -0.70049,-1.569745 -1.05469,-2.361328 z m -55.20313,5.550781 c 5.157,0 9.08985,4.251378 9.08985,9.205078 0,4.9536 -3.98885,9.205078 -9.08985,9.205078 -5.16,0 -9.08789,-4.071478 -9.08789,-9.205078 0,-5.1336 3.93089,-9.205078 9.08789,-9.205078 z m 36.73633,0 c 5.156,0 9.08984,4.251378 9.08984,9.205078 0,4.9536 -3.98984,9.205078 -9.08984,9.205078 -5.161,0 -9.08789,-4.071478 -9.08789,-9.205078 0,-5.1336 3.93089,-9.205078 9.08789,-9.205078 z m 28.83008,4.419922 c -0.47169,1.51186 -0.72266,3.120174 -0.72266,4.785156 0,6.112339 3.37976,11.470805 8.66406,14.035156 -2.52277,-6.324668 -5.16647,-12.600374 -7.9414,-18.820312 z M 87.15625,36.070312 84.912109,42.197266 h 7.97461 L 93.148438,41.5 C 92.938429,41.213905 92.709527,40.940912 92.458984,40.685547 91.691645,39.865501 90.85436,39.120606 90.013672,38.376953 89.086512,37.577151 88.119986,36.82481 87.15625,36.070312 Z" />
    <path
       id="path2"
       d="m 219.57617,1.8671875 c -0.91598,0.7404702 -1.50586,1.885451 -1.50586,3.1503906 0,2.24397 1.75764,3.9550782 3.93164,3.9550781 0.25662,0 0.50778,-0.024525 0.75196,-0.070312 -0.47331,-1.0515818 -1.02545,-2.2755299 -1.69727,-3.765625 -0.49165,-1.090473 -0.98545,-2.1799509 -1.48047,-3.2695313 z" />
    <path
       fill="url(#paint0_linear_2357_1934)"
       d="m 27.238747,5.3176725 c 7.3654,0 14.7273,0 22.0927,-0.011558 0.624,0 1.276,0.00385 1.8369,0.2850892 0.7082,0.3582751 1.1394,1.0902539 1.532,1.7798559 7.4635,13.1563354 14.9236,26.3087394 22.3871,39.4650744 0.3015,0.531648 0.4382,1.151848 0.333,1.752831 -0.2839,1.652813 -1.9596,1.818455 -3.3338,1.818455 -6.205,0 -12.41,-0.0039 -18.6151,-0.0077 -0.617,0 -1.269,-0.0076 -1.7984,-0.331283 -0.4978,-0.300491 -0.8063,-0.832139 -1.0937,-1.340638 -3.2883,-5.790359 -20.0454,-37.623612 -23.3372,-43.4139257"
       clip-rule="evenodd"
       fill-rule="evenodd"
       id="path3"
       style="fill:url(#paint0_linear_2357_1934);stroke-width:1.04494" />
    <path
       fill="url(#paint1_linear_2357_1934)"
       d="m 38.625347,26.500211 c -5.1043,9.581228 -10.2751,19.285622 -11.9508,22.232776 -0.2875,0.508608 -0.596,1.040256 -1.0938,1.340748 -0.5293,0.319708 -1.1814,0.331283 -1.7984,0.331283 -6.205,0 -12.40998,0.0038 -18.6149902,0.0077 -1.37422,0 -3.049921,-0.16182 -3.3338789,-1.818455 C 1.7283083,47.993285 1.8650289,47.373085 2.1665148,46.841437 9.6300568,33.685102 17.090047,20.532699 24.553647,7.3763411 c 0.3926,-0.6934455 0.8238,-1.4254244 1.5319,-1.779856 0.561,-0.2850859 1.2095,-0.2850859 1.837,-0.2850859 7.3654,0.0077 14.7273,0.011558 22.0926,0.011558 0,0 1.3848,-0.1155757 2.2051,1.2713306 0.8203,1.386902 5.0376,8.8183702 5.0376,8.8183702 0,0 -4.8308,-6.0445663 -10.6256,-1.895424 -2.7625,1.976333 -5.7808,8.498595 -8.0069,12.98293 z"
       clip-rule="evenodd"
       fill-rule="evenodd"
       id="path4"
       sodipodi:nodetypes="cccscccccccsccc"
       style="fill:url(#paint1_linear_2357_1934);stroke-width:1.04494" />
    <path
       id="path5"
       d="m 222.02734,54.138672 v 6.787109 c 1.73265,0.116264 3.46588,0.228426 5.19922,0.333985 v -7.121094 z m 11.61524,0 -5.73633,7.162109 c 1.91936,0.115402 3.83964,0.224611 5.75977,0.328125 l 6.31836,-7.490234 z m -11.61524,14.796875 v 5.628906 h 5.19922 v -5.298828 c -1.73334,-0.104659 -3.46657,-0.214852 -5.19922,-0.330078 z m 9.26172,0.566406 3.23242,5.0625 h 6.19532 0.006 l -3.13086,-4.730469 c -2.10122,-0.104323 -4.20234,-0.214534 -6.30274,-0.332031 z" />
    <path
       id="path6"
       d="m 250.21875,54.140625 c 0.26115,0.715315 0.52088,1.432116 0.7793,2.148437 0.30186,0.906433 0.6025,1.812704 0.90039,2.720704 h 5.88086 v -4.869141 z m 6.89648,7.511719 c -0.0237,0.336942 -0.0566,0.668326 -0.0996,0.99414 1.52832,0.05342 3.0555,0.104773 4.58399,0.154297 0.014,-0.232333 0.0215,-0.464073 0.0215,-0.695312 l -0.0137,-0.453125 z m -4.1875,0.539062 c 0.0331,0.103567 0.0666,0.206952 0.0996,0.310547 0.0499,0.0019 0.0985,0.004 0.14844,0.0059 z m -10.64062,7.865235 c 0.18,0.677294 0.46136,1.291379 0.8457,1.839843 0.722,1.0302 1.68453,1.804807 2.89453,2.316407 0.73715,0.314066 1.51695,0.533661 2.33789,0.65625 -0.41566,-1.54024 -0.85271,-3.073755 -1.30664,-4.603516 -1.59081,-0.06611 -3.18102,-0.136726 -4.77148,-0.208984 z m 13.18555,0.533203 c 0.27132,0.958489 0.53486,1.918079 0.79101,2.880859 l 0.84961,1.091797 h 5.54492 l 0.008,-0.002 -3.00977,-3.828125 c -1.39515,-0.04645 -2.7886,-0.09274 -4.18359,-0.142578 z" />
    <path
       id="path7"
       d="m 271.14648,54.111328 -3.39843,8.878906 c 1.60149,0.04737 3.20117,0.09407 4.80273,0.138672 l 0.625,-1.851562 0.2168,-0.927735 h 0.0293 l 0.23046,0.927735 0.64063,1.898437 c 1.63443,0.04466 3.26987,0.09009 4.9043,0.132813 l -3.50196,-9.197266 z m -6.42578,16.783203 -1.40429,3.669922 h 5.36132 l 1.08399,-3.199219 h 7.28125 l 1.08203,3.199219 h 5.35742 l -1.21094,-3.181641 c -5.84964,-0.149936 -11.70149,-0.308224 -17.55078,-0.488281 z" />
    <path
       id="path8"
       d="m 292.41016,54.138672 v 9.009766 c 0.0651,-0.0083 0.13089,-0.01616 0.19726,-0.02344 1.66737,-0.182808 3.33465,-0.366514 5.00196,-0.550781 v -3.710938 h 2.84765 c 0.462,0 0.87605,0.09189 1.24805,0.275391 0.368,0.187 0.66286,0.445237 0.88086,0.773437 0.217,0.3281 0.32422,0.688313 0.32422,1.132813 0,0.346085 -0.0642,0.667701 -0.19532,0.964844 1.79733,-0.197983 3.5949,-0.395 5.39258,-0.589844 0.006,-0.139016 0.008,-0.279429 0.008,-0.421875 0,-1.3055 -0.30334,-2.479038 -0.90234,-3.523438 -0.603,-1.0408 -1.45655,-1.856418 -2.56055,-2.449218 -1.101,-0.5927 -2.38565,-0.886719 -3.84765,-0.886719 z m 0,17.5 v 2.925781 h 0.004 5.19922 v -2.794922 c -1.7342,-0.04449 -3.46867,-0.0872 -5.20312,-0.130859 z" />
    <path
       id="path9"
       d="m 310.36719,52.759766 v 8.416015 c 1.61708,-0.173388 3.23395,-0.343671 4.85156,-0.511719 v -7.904296 z m 4.85156,15.939453 c -1.6176,0.16915 -3.23447,0.341448 -4.85156,0.515625 v 5.349609 h 4.85156 z" />
    <path
       id="path10"
       d="m 318.15234,59.148438 v 1.214843 c 1.62762,-0.164901 3.2544,-0.325919 4.88282,-0.482422 v -0.732421 z m 10.61914,0 -0.004,0.0078 h 0.004 z m 0,0.0078 v 0.193359 c 0.74676,-0.06611 1.49325,-0.129765 2.24024,-0.193359 z m 4.87891,7.796875 c -1.62724,0.133761 -3.25278,0.274023 -4.87891,0.419922 v 0.148437 c 0,0.4975 -0.13715,0.962057 -0.41015,1.410157 -0.277,0.4445 -0.65191,0.802212 -1.12891,1.070312 -0.477,0.2682 -0.99573,0.398438 -1.55273,0.398438 -0.81,0 -1.45074,-0.275366 -1.92774,-0.822266 -0.37135,-0.425689 -0.59952,-0.984291 -0.68164,-1.671875 -1.63937,0.159105 -3.27742,0.322916 -4.91601,0.490234 0.0254,1.293863 0.27766,2.417508 0.75586,3.373047 0.508,1.0091 1.21586,1.777747 2.13086,2.310547 0.915,0.5328 1.96711,0.800781 3.1621,0.800781 0.87001,0 1.77013,-0.201315 2.70313,-0.603515 0.932,-0.4022 1.69225,-0.9239 2.28125,-1.5625 l 0.70898,1.847656 h 3.75391 z" />
    <path
       id="path11"
       d="m 346.94531,66.353516 c -3.09505,0.0058 -6.19295,0.162644 -9.2832,0.341796 0.0266,0.02454 0.0526,0.04812 0.0801,0.07227 0.915,0.8044 2.09701,1.400963 3.54101,1.789063 0.75,0.2011 1.32275,0.377596 1.71875,0.529297 0.396,0.1517 0.67208,0.2964 0.83008,0.4375 0.158,0.1376 0.23828,0.299328 0.23828,0.486328 0,0.5257 -0.5009,0.787109 -1.5039,0.787109 -0.771,0 -1.59471,-0.1446 -2.47071,-0.4375 -0.877,-0.2893 -1.63553,-0.639222 -2.26953,-1.044922 L 335.7168,72.6875 c 2.111,1.5418 4.45515,2.310547 7.03515,2.310547 1.231,0 2.31782,-0.214031 3.25782,-0.644531 0.939,-0.434 1.66087,-1.023891 2.17187,-1.775391 0.509,-0.7515 0.76563,-1.597084 0.76563,-2.521484 0,-0.9244 -0.20443,-1.700838 -0.60743,-2.335938 -0.34243,-0.539655 -0.80643,-0.99564 -1.39453,-1.367187 z" />
    <text
       xml:space="preserve"
       id="text20"
       style="text-align:start;writing-mode:lr-tb;direction:ltr;white-space:pre;shape-inside:url(#rect21);display:inline;fill:#000000" />
  </g>
  <defs
     id="defs20">
    <rect
       x="-11.020734"
       y="-10.031694"
       width="88.165875"
       height="54.538506"
       id="rect21" />
    <linearGradient
       gradientUnits="userSpaceOnUse"
       y2="15.3231"
       x2="49.5488"
       y1="69.9651"
       x1="49.5488"
       id="paint0_linear_2357_1934"
       gradientTransform="matrix(1,0,0,1.0919026,1.7983468,4.3123127)">
      <stop
         stop-color="#77B6E4"
         id="stop11" />
      <stop
         stop-color="#6DADDE"
         offset="0.18"
         id="stop12" />
      <stop
         stop-color="#5995CD"
         offset="0.46"
         id="stop13" />
      <stop
         stop-color="#3970B3"
         offset="0.81"
         id="stop14" />
      <stop
         stop-color="#2559A5"
         offset="1"
         id="stop15" />
    </linearGradient>
    <linearGradient
       gradientUnits="userSpaceOnUse"
       y2="-4.19034"
       x2="27.7298"
       y1="74.5708"
       x1="27.7298"
       id="paint1_linear_2357_1934"
       gradientTransform="matrix(1,0,0,1.0919026,1.7983468,4.3123127)">
      <stop
         stop-color="#77B6E4"
         id="stop16" />
      <stop
         stop-color="#6DADDE"
         offset="0.18"
         id="stop17" />
      <stop
         stop-color="#5995CD"
         offset="0.46"
         id="stop18" />
      <stop
         stop-color="#3970B3"
         offset="0.81"
         id="stop19" />
      <stop
         stop-color="#2559A5"
         offset="1"
         id="stop20" />
    </linearGradient>
    <clipPath
       id="clip0_2357_1934">
      <rect
         fill="white"
         height="75"
         width="355.645"
         id="rect20" />
    </clipPath>
  </defs>
</svg>
