<?xml version="1.0" encoding="UTF-8" standalone="no"?>
<svg
   version="1.1"
   viewBox="0 0 1521.2754 893.58112"
   id="svg68"
   sodipodi:docname="KA.svg"
   width="1521.2754"
   height="893.58112"
   inkscape:version="1.4.2 (ebf0e940d0, 2025-05-08)"
   xmlns:inkscape="http://www.inkscape.org/namespaces/inkscape"
   xmlns:sodipodi="http://sodipodi.sourceforge.net/DTD/sodipodi-0.dtd"
   xmlns="http://www.w3.org/2000/svg"
   xmlns:svg="http://www.w3.org/2000/svg">
  <defs
     id="defs68" />
  <sodipodi:namedview
     id="namedview68"
     pagecolor="#ffffff"
     bordercolor="#000000"
     borderopacity="0.25"
     inkscape:showpageshadow="2"
     inkscape:pageopacity="0.0"
     inkscape:pagecheckerboard="0"
     inkscape:deskcolor="#d1d1d1"
     inkscape:zoom="0.45121263"
     inkscape:cx="746.87625"
     inkscape:cy="449.89875"
     inkscape:window-width="1920"
     inkscape:window-height="1011"
     inkscape:window-x="0"
     inkscape:window-y="0"
     inkscape:window-maximized="1"
     inkscape:current-layer="svg68" />
  <g
     stroke-width="2"
     fill="none"
     stroke-linecap="butt"
     id="g28"
     transform="translate(-139.5799,-437.11889)">
    <path
       stroke="#445358"
       vector-effect="non-scaling-stroke"
       d="m 149.69,1161.88 q 2.54,-0.31 5.08,-0.27 2.03,0.04 7.64,0.04 c 5.65,0.01 11.49,-0.93 16.84,-0.96 17.03,-0.09 38.81,-0.3 64,-0.14 q 34.95,0.22 64.54,-0.07 c 23.42,-0.23 44.4,0.81 66.81,0.61 7.63,-0.07 17.96,0.18 19.91,-8.29 q 1.31,-5.72 1.29,-10.42 -0.33,-112.44 -0.28,-247.81 c 0.02,-52.97 0.2,-101.12 0.54,-141.32 q 0.06,-7.31 0.01,-14.59 -0.14,-19.49 -0.19,-54.91 -0.02,-12.27 0.07,-24.5 0.58,-79.22 -0.03,-106.73 -0.06,-2.39 -0.03,-8.27 0.09,-20.21 -0.26,-93.38 c -0.05,-8.38 -4.45,-11.45 -12.42,-11.47 -26.88,-0.06 -51.94,0.15 -79.94,-0.39 q -33.48,-0.63 -47.47,-0.32 -32.38,0.73 -61.41,0.16 c -8.34,-0.16 -22.46,0.36 -33.71,0.03 q -8.11,-0.24 -14.69,0.2 a 0.85,0.82 -66.6 0 0 -0.48,0.2 l -3.56,3.08 a 0.97,0.95 68.9 0 0 -0.33,0.77 q 0.42,17.18 0.35,28.37 -0.09,12.77 -0.13,98 -0.23,483.59 -0.17,532.87 c 0.01,11.45 0.39,32.34 0.1,48.49 q -0.07,3.67 0.98,5.59 1.26,2.33 3.75,4.33"
       id="path1" />
    <path
       stroke="#445358"
       vector-effect="non-scaling-stroke"
       d="m 1014.04,454.05 6.39,-11.79 a 1.34,1.33 -70.4 0 0 -0.92,-1.95 q -5.89,-1.12 -12.78,-1.17 -15.83,-0.11 -44.34,0.21 c -29.57,0.33 -61.87,-0.12 -89.89,0.02 -5.64,0.03 -12.01,-0.51 -17.28,-0.41 -22.71,0.43 -44.95,-0.21 -67.77,0.08 q -15.04,0.18 -62.2,0.61 c -5.54,0.05 -11.89,0.19 -15.62,3.25 q -4.69,3.87 -9.37,9.6 -25.91,31.74 -37.6,46.64 c -11.55,14.7 -27.36,33.08 -36.24,43.99 -3.01,3.7 -4.95,7.36 -8.73,11.05 q -2.37,2.31 -9.95,12.08 -4.59,5.93 -9.97,12.06 c -7.09,8.07 -12.93,16.29 -20.89,26.06 -9.44,11.58 -14.45,17.06 -18.13,22.64 a 10.44,10.36 87.2 0 1 -2.09,2.32 q -3.49,2.86 -7.18,8.1 c -1.98,2.8 -4.18,4.34 -6.14,7.07 q -0.82,1.15 -3.85,4.83 -6.83,8.29 -9.73,12.19 c -4.13,5.57 -9.34,10.39 -12.66,15.4 q -3.28,4.97 -7.48,9.98 -10.11,12.05 -10.18,12.13 -4.25,5.65 -8.05,9.81 -4.99,5.46 -8.09,9.82 -3.71,5.22 -11.3,14.04 -5.76,6.69 -11.99,14.58 -1.95,2.48 -6.08,7.61 -5.57,6.94 -13.55,17.1 c -6.28,8 -9,13.38 -8.92,23.18 q 0.41,54.86 -0.01,113.57 -0.19,26.01 0.14,127.31 c 0.06,18.07 0.63,36.41 0.15,53.54 -0.4,14.45 0.11,29.09 -0.26,43.53 -0.25,10.02 -0.99,17.66 1.31,25.3 a 1.84,1.83 58.5 0 0 3.08,0.74 q 3.29,-3.46 6.07,-7.25 6.15,-8.39 13.5,-19.08 6,-8.73 9.98,-12.97 c 7.17,-7.67 13.4,-13.23 19.43,-21.54 6.92,-9.55 11.04,-16.35 18.23,-24.32 q 12.68,-14.05 15.69,-17.76 10.74,-13.25 16.6,-19.97 c 3.28,-3.75 5.37,-6.55 7.71,-9.87 5.9,-8.33 14.38,-15.7 20.35,-24.61 q 6.45,-9.62 11.12,-14.51 13.62,-14.24 16.42,-18.1 c 5.92,-8.18 12.14,-15.85 18.86,-22.9 q 3.58,-3.76 7.04,-8.84 c 5.94,-8.72 14.67,-18.14 21.12,-26.96 q 4.98,-6.81 17.14,-20.36 6.2,-6.9 25.36,-31.09 c 7.21,-9.11 13.99,-16.36 20.45,-24.9 11.56,-15.27 28.77,-34.76 38.4,-47.81 2.97,-4.03 7.25,-8.01 11.03,-13.26 q 1.45,-2.02 8.62,-10.09 5.02,-5.66 14.51,-18.91 c 4.52,-6.31 9.48,-10.89 13.74,-16.81 q 3.58,-4.96 10.13,-12.46 10.69,-12.25 17.25,-21.22 7.16,-9.8 11.62,-14.43 3.82,-3.97 13.1,-14.57 c 5,-5.72 8.89,-11.63 14.09,-17.94 q 20.62,-25.02 29.42,-36.55 c 2.6,-3.4 6.12,-6.99 8.75,-10.9 q 5.27,-7.89 13.02,-16.09 c 8.43,-8.92 13.39,-15.54 21.29,-24.58 4.29,-4.9 8.81,-11.43 12.95,-16.36 5.51,-6.57 10.05,-13.82 15.33,-19.74 4.04,-4.52 6.71,-9.05 11.04,-13.96 q 3.87,-4.41 12.52,-14.57 c 8.27,-9.72 15.38,-20.96 26.54,-27.92"
       id="path2" />
    <path
       stroke="#445358"
       vector-effect="non-scaling-stroke"
       d="m 686.75,943.66 c -4.62,3.69 -4.76,7.24 -1.19,11.96 q 5.64,7.44 8.66,10.57 4.46,4.6 8.07,9.74 5.05,7.21 13.05,16.26 c 1.21,1.36 3.04,2.27 4.25,3.48 q 8.93,8.98 16.01,20.58 a 0.16,0.15 9 0 1 -0.25,0.18 l -3.69,-4.2 a 0.22,0.21 49.8 0 0 -0.3,-0.03 l -0.01,0.01 a 0.23,0.22 45.8 0 0 0,0.33 q 9.36,9.15 14.9,17.46 6.25,9.37 8.56,11.87 a 0.15,0.15 0 0 0 0.21,0.01 0.22,0.21 -50.9 0 0 -0.02,-0.24 l -5.04,-6.14 a 0.27,0.26 56.5 0 1 0.08,-0.4 l 0.43,-0.22 a 0.04,0.04 0 0 1 0.05,0.01 q 20.22,25.09 29.95,37.58 3.45,4.42 6.96,7.96 5.59,5.64 7.12,7.79 2.78,3.89 8.35,12.4 2.47,3.79 5.94,6.38 8.52,8.83 16.72,18.02 4.2,4.71 7.97,11.25 2.31,4.01 10.05,13.02 c 6.05,7.05 11.34,11.34 20.76,11.3 20.83,-0.09 40.2,-0.62 60.22,-0.43 q 59.15,0.57 107.69,0.09 21.79,-0.21 30.85,0.21 10.37,0.49 24.53,0.07 7.87,-0.23 25.87,0.3 c 11.37,0.34 20.54,-0.11 33.16,-0.05 q 1.91,0.01 5.69,-1.03 a 0.69,0.68 82.2 0 0 0.5,-0.66 q -0.03,-4.68 -2.29,-7.65 c -11.92,-15.72 -24.98,-30.54 -37.19,-45.98 q -4.31,-5.45 -18.68,-22.82 c -3.66,-4.44 -6.72,-7.25 -9.4,-11.2 q -1.96,-2.88 -6.54,-8.42 -25.37,-30.66 -34.74,-42.2 c -1.79,-2.2 -3.9,-4.36 -5.83,-6.74 -3.59,-4.46 -7.71,-11.76 -12.16,-16.24 -4.06,-4.08 -6.64,-9.57 -10.8,-13.93 q -7.83,-8.19 -23.35,-27.47 -5.55,-6.89 -13.99,-9.73 -4.72,-1.59 -15.96,-1.52 -63.68,0.35 -65.96,0.37 -35.25,0.26 -65.94,0.19 -0.34,0 -83.76,-0.31 -15.43,-0.05 -34.65,-0.22 -4.86,-0.04 -9.58,-1.2"
       id="path3" />
    <path
       stroke="#445358"
       vector-effect="non-scaling-stroke"
       d="m 808.84,1107 q -0.2,-0.2 -0.35,-0.4 0,-0.01 0,0 0.15,0.2 0.35,0.4"
       id="path4" />
    <path
       stroke="#445358"
       vector-effect="non-scaling-stroke"
       d="m 1656.47,1199.87 q -4.49,-2.47 -10.13,-2.48 c -19.76,-0.06 -39.09,0.38 -58.62,0.14 q -6.59,-0.08 -19.12,0.06 c -25.99,0.28 -60.67,-0.8 -79.97,-0.09 -8.22,0.3 -15.43,0.88 -22.54,0.5 -6.37,-0.34 -13.62,-0.71 -20.87,-0.66 q -33.55,0.24 -68,0.14 c -19.89,-0.05 -41.7,0.72 -62.1,0.11 -19.02,-0.57 -42.24,0.43 -62.44,0.05 -18.67,-0.36 -37.54,0.18 -59.28,-0.28 -17.37,-0.38 -32.52,0.26 -49.53,-0.19 -12.05,-0.31 -28.24,0.38 -39.23,0.19 q -3.13,-0.05 -91.42,0.34 -26.39,0.11 -59.31,-0.25 -32.22,-0.34 -59.32,0.09 -33.93,0.55 -48.84,0.18 -35.77,-0.87 -41.61,-0.45 -0.29,0.02 -33.05,0.21 c -28.62,0.16 -57.38,-0.73 -84.03,0.18 -4.85,0.17 -10.59,-0.18 -15.78,-0.15 -50.01,0.24 -100.25,-0.12 -142.49,-0.15 -12.25,0 -22.27,0.82 -32.99,0.38 q -10.53,-0.43 -24.72,-0.32 -38.57,0.3 -76.32,-0.4 c -9.5,-0.18 -21.17,0.48 -29.71,0.44 -36.52,-0.21 -70.02,0.14 -106.13,-0.06 q -36.2,-0.19 -64.21,0.23 c -14.71,0.22 -28.18,-0.34 -43.62,-0.75 -7.64,-0.21 -8.78,4.68 -8.54,11.51 q 0.16,4.58 -0.72,60.71 c -0.28,18.09 0.11,29.67 0.05,51.9 q -0.01,3.51 2.09,5.82 0.91,1 4.93,2.61 a 1.97,1.93 44.5 0 0 1.45,0 l 1.28,-0.51 a 1.04,1 -54.4 0 1 0.37,-0.07 q 16.86,0.08 37,-0.51 11.24,-0.33 21.39,-0.07 15.75,0.4 21.37,0.37 c 17.62,-0.07 32.11,0.22 47.24,0.12 38.71,-0.24 83.45,0.31 127.73,-0.27 q 23.61,-0.3 29.49,-0.1 23.16,0.78 68.54,0.24 7.41,-0.09 36.87,0.15 c 6.46,0.05 14.08,-0.43 20.38,-0.42 q 139.02,0.14 146.15,0.14 5.91,0.01 10.59,0.05 47.22,0.4 107.23,0.33 c 18.18,-0.02 34.61,-0.7 52.9,-0.45 45.91,0.62 109.7,-0.32 175.53,0.16 32.66,0.24 67.4,-0.24 100.32,-0.18 18.37,0.03 57.67,0.36 88.57,0.04 29.98,-0.31 61.5,0.19 89.82,0.19 55.47,-0.02 107.88,-0.24 158.9,0.14 q 26.74,0.21 46.24,-0.29 17.2,-0.43 85.58,0.3 c 9.24,0.09 17.08,0.74 25.45,0.25 q 4.96,-0.29 6.17,-3.7 1.67,-4.73 2.16,-10.83 c 0.98,-12.15 0.21,-29.93 0.35,-41.72 0.33,-28.03 0.88,-47.84 -0.53,-71.38 a 1.88,1.88 0 0 0 -0.97,-1.54"
       id="path5" />
    <path
       stroke="#445358"
       vector-effect="non-scaling-stroke"
       d="m 302.42,1296.43 q -1.32,-5.75 -3.45,-8.64 c -5.94,-8.05 -12.18,-15.8 -18.21,-26.01 -1.74,-2.95 -3.08,-7.66 -0.23,-10.44 6.18,-6.02 11.02,-11.71 16.21,-17.36 q 1.91,-2.08 3.06,-3.85 1.25,-1.92 2.59,-4.2"
       id="path6" />
    <path
       stroke="#445358"
       vector-effect="non-scaling-stroke"
       d="m 295.17,1224.7 q 2.96,-0.79 6.11,0.02 a 0.14,0.13 -74.3 0 0 0.16,-0.1 0.14,0.14 0 0 0 -0.09,-0.17 q -3.27,-1.1 -6.69,-1.62 a 0.01,0.01 0 0 1 0,-0.02 q 0.01,-0.01 0.03,-0.02 a 0.22,0.19 28.1 0 1 0.14,-0.03 l 6.29,0.41 a 1.32,1.3 -87.7 0 1 1.22,1.34 l -0.11,4.85 a 0.04,0.02 -9.8 0 0 0.05,0.01 q 0.01,0 0.03,0 a 0.08,0.05 -86.4 0 0 0.04,-0.06 q 0.6,-2.86 -0.01,-5.78 a 0.87,0.86 1.1 0 0 -0.64,-0.66 q -8.41,-2 -16.82,-0.67 -4.16,0.65 -7.4,4.02 c -5.36,5.58 -10.36,11.92 -16.78,16.04 a 0.77,0.76 -38.6 0 1 -0.95,-0.1 q -1.74,-1.71 -2.2,-4.33 -0.52,-2.92 -1.68,-12.51 a 1.64,1.64 0 0 0 -1.22,-1.4 q -9.35,-2.35 -18.82,0.32 a 0.66,0.63 -5 0 0 -0.47,0.54 q -0.53,4.52 -0.56,10.83 c -0.02,4.76 -0.94,10.03 -1.06,14.5 q -0.37,12.9 0.13,36.35 0.1,4.97 2,11.6 a 0.89,0.89 0 0 0 0.67,0.62 l 1,0.22"
       id="path7" />
    <path
       stroke="#445358"
       vector-effect="non-scaling-stroke"
       d="m 982.73,1291.41 q -3.1,-6.59 -7.49,-9.52 a 1.02,1.02 0 0 1 -0.28,-1.42 l 3.07,-4.54 a 0.25,0.25 0 0 0 -0.05,-0.33 v -0.01 a 0.25,0.24 -52.6 0 0 -0.34,0.05 l -2.43,3.06 a 2,1.93 69.6 0 0 -0.41,0.94 q -0.35,2.47 1.02,3.48 a 0.16,0.15 -61.6 0 1 0.05,0.19 q -0.01,0.03 -0.04,0.05 a 0.15,0.13 44.8 0 1 -0.19,-0.01 l -1.62,-1.52 a 0.81,0.81 0 0 1 -0.22,-0.87 l 1.64,-4.74"
       id="path8" />
    <path
       stroke="#445358"
       vector-effect="non-scaling-stroke"
       d="m 962.75,1229.18 c -5.02,-7.03 -12.44,-7.94 -20.49,-7.26 -9.08,0.78 -17.34,6.12 -19.68,15.09 -1.24,4.74 -0.88,7.89 -0.64,14.26 q 0.22,5.72 -1.63,8.42 c -4.83,7.07 -7.71,11.33 -7.01,19.76 q 1.03,12.27 10.51,18.59 a 0.46,0.45 -56.5 0 0 0.62,-0.13 v -0.01 a 0.47,0.46 -57.5 0 0 -0.14,-0.65 q -6.17,-3.81 -8.61,-11.31 -4.4,-13.49 4.08,-22.92 3.17,-3.53 4.81,-5.36 a 1.16,1.15 -26 0 0 0.29,-0.84 l -0.43,-9.75"
       id="path9" />
    <path
       stroke="#445358"
       vector-effect="non-scaling-stroke"
       d="m 611.58,1298.81 q 1.78,-3.5 2.1,-5.18 0.63,-3.33 0.63,-11.39 0.02,-26.83 0.07,-38.39 a 0.57,0.56 88.9 0 1 0.53,-0.56 c 4.92,-0.3 13.26,-0.06 19.95,-2.42 a 0.94,0.93 84.3 0 0 0.61,-0.75 q 1.02,-7.35 0.28,-14.91 a 0.98,0.97 -77.4 0 0 -0.46,-0.73 q -4.67,-2.83 -13.31,-2.76 c -16.3,0.14 -24.84,0.23 -31.17,0.18 q -9.47,-0.08 -17.58,1.78 a 1.7,1.7 0 0 0 -1.32,1.49 q -0.72,7.27 0.62,14.31 a 0.05,0.05 0 0 0 0.09,-0.01 l 0.01,-10.76"
       id="path10" />
    <path
       stroke="#445358"
       vector-effect="non-scaling-stroke"
       d="m 1321.06,1222.25 0.03,0.9 a 0.11,0.11 0 0 0 0.12,0.1 h 0.2 a 13.15,0.56 -2.2 0 0 13.12,-1.07 13.15,0.56 -2.2 0 0 -13.17,-0.05 h -0.2 a 0.11,0.11 0 0 0 -0.1,0.12"
       id="path11" />
    <path
       stroke="#445358"
       vector-effect="non-scaling-stroke"
       d="m 1433.53,1257.53 q 2.95,1.82 3.98,3.65 3.85,6.76 9.47,15.63 1.98,3.12 4.79,5.97 a 0.92,0.91 -29.1 0 0 0.86,0.24 q 5.87,-1.37 9.33,-6.57 3.13,-4.7 6.72,-9.7 a 0.7,0.7 0 0 1 1.26,0.29 c 1.14,7.02 0.82,14.39 1.3,22.91 0.24,4.25 1.04,10.06 6.56,9.8 q 8.22,-0.39 12.91,-0.4 a 0.82,0.82 0 0 0 0.7,-0.39 q 2.6,-4.14 2.7,-12 0.35,-27.71 0.25,-53.83 c -0.02,-3.97 -0.83,-8.36 -4.62,-9.69 -7.81,-2.74 -17.89,-2.44 -22.74,5.58 q -5.06,8.35 -7.37,12.09 -2.42,3.91 -6.5,5.69 a 0.84,0.83 59.7 0 1 -1,-0.27 q -5.06,-6.75 -10.04,-14.65 c -3.46,-5.51 -5.91,-7.4 -12.42,-7.88 q -5.18,-0.39 -11.75,-0.36 a 1.3,1.3 0 0 0 -1.19,0.78 q -3.03,6.8 -2.81,14.86 0.02,0.7 0.38,17.94 c 0.2,9.4 -0.38,21.89 0.04,32.02 q 0.24,5.63 2.56,9.61 a 0.55,0.55 0 0 0 0.52,0.26 l 0.3,-0.04"
       id="path12" />
    <path
       stroke="#445358"
       vector-effect="non-scaling-stroke"
       d="m 399.48,1298.84 q 0.43,0.61 1.08,0.03"
       id="path13" />
    <path
       stroke="#445358"
       vector-effect="non-scaling-stroke"
       d="m 412.24,1298.81 q 1.11,0.51 2.02,0.19 a 0.93,0.92 87.9 0 0 0.61,-0.67 q 1.39,-5.82 1.45,-12.6 0.17,-19.36 0.04,-55.11 -0.01,-0.65 -0.43,-5.25 a 0.95,0.94 13 0 0 -0.47,-0.74 c -5.53,-3.18 -14,-2.87 -19.89,-0.88 a 0.89,0.88 -3.2 0 0 -0.57,0.63 c -1.89,8.85 -1.43,18.27 -2.03,25.56 a 1.87,1.86 -86.5 0 1 -1.93,1.71 l -18.49,-0.68 a 0.75,0.75 0 0 1 -0.73,-0.71 q -0.23,-3.29 -0.65,-19.45 -0.02,-0.95 -0.91,-5.97 a 0.85,0.84 -86.6 0 0 -0.58,-0.66 q -9.4,-2.95 -19.38,-0.5 a 0.91,0.9 -3.3 0 0 -0.68,0.76 q -0.83,6.7 -0.92,13.64 -0.17,13.11 -0.39,36.52 -0.06,7.24 0.41,15.13 0.3,4.97 1.09,8.07 a 1.69,1.68 -8 0 0 1.7,1.27 l 5.53,-0.19"
       id="path14" />
    <path
       stroke="#445358"
       vector-effect="non-scaling-stroke"
       d="m 477.69,1298.79 q 3.81,-1.96 5.85,-6.52 1.96,-4.36 2.72,-6.41 a 0.77,0.77 0 0 1 0.67,-0.49 q 10.14,-0.7 22,0.04 4.87,0.3 6.57,3.85 2.9,6.07 5.87,8.88"
       id="path15" />
    <path
       stroke="#445358"
       vector-effect="non-scaling-stroke"
       d="m 538.92,1298.6 q 0.21,0.21 0.47,-0.16 a 0.69,0.67 -25.7 0 0 0.14,-0.38 q 0.34,-6.86 -2.83,-13.78 c -7.4,-16.16 -15.18,-35.99 -23.36,-54.57 q -2.81,-6.41 -9.99,-6.69 -3.2,-0.13 -6.65,-0.3 a 0.11,0.08 11 0 1 -0.11,-0.12 q 0.01,-0.01 0.01,-0.03 a 0.1,0.07 9.2 0 1 0.08,-0.04 l 9.35,0.04 a 0.09,0.09 0 0 0 0.09,-0.09 v -0.29 a 0.25,0.25 0 0 0 -0.24,-0.25 c -7.18,-0.29 -16.17,-0.5 -19.06,7.35 q -2.32,6.29 -4.84,11.58 c -2.77,5.85 -5.82,13.96 -9.06,21.38 a 0.08,0.08 0 0 0 0.04,0.11 l 0.25,0.12 a 0.13,0.13 0 0 0 0.16,-0.06 l 9.45,-20.75 a 0.04,0.04 0 0 1 0.07,0.02 q 0,0.07 -0.08,0.23 -8.36,19.24 -12.77,30.04 c -2.23,5.45 -5.01,10.57 -7.54,15.34 q -2.21,4.17 -1.41,11.54"
       id="path16" />
    <path
       stroke="#445358"
       vector-effect="non-scaling-stroke"
       d="m 1562.97,1298.76 q 0.31,-0.12 0.7,-0.04 a 0.49,0.48 12.7 0 0 0.58,-0.36 q 1.23,-5.17 1.29,-8.96 0.07,-3.43 -0.35,-64.1 a 1.53,1.53 0 0 0 -1.02,-1.44 c -4.25,-1.52 -13.57,-2.86 -17.26,0 -3.9,3.03 -4.01,9.35 -3.97,13.49 q 0.19,21.72 0.22,53.95 0,0.99 0.49,2.88 a 0.18,0.18 0 0 0 0.35,-0.04 q -0.14,-36.82 -0.43,-64.14 -0.01,-0.48 0.33,-0.48 a 0.11,0.11 0 0 1 0.11,0.11 v 53.99 a 0.14,0.14 0 0 0 0.27,0.07 q 0.14,-0.26 0.09,-0.77 0.18,5.87 2.14,11.59"
       id="path17" />
    <path
       stroke="#445358"
       vector-effect="non-scaling-stroke"
       d="m 1104.94,1282.63 q 1.83,0.57 3.63,0.02"
       id="path18" />
    <path
       stroke="#445358"
       vector-effect="non-scaling-stroke"
       d="m 1110.95,1282.63 q 1.24,0.53 2.6,0.02"
       id="path19" />
    <path
       stroke="#445358"
       vector-effect="non-scaling-stroke"
       d="m 1114.44,1282.68 q 1.29,0.48 2.36,-0.04"
       id="path20" />
    <path
       stroke="#445358"
       vector-effect="non-scaling-stroke"
       d="m 1149.5,1296.26 q -0.57,-9.49 -4.57,-17.94 -7.99,-16.84 -12.56,-28.49 c -2.38,-6.09 -4.09,-11.94 -7.18,-17.86 -2.88,-5.5 -4.42,-8.47 -10.19,-9.16 -6.32,-0.76 -13.14,-0.82 -16.65,5.59 q -5.68,10.35 -9.94,21.5 -5.3,13.85 -10.98,26.16 c -1.52,3.3 -2.79,7.08 -4.89,10.51 q -3.09,5.03 -2.4,11.73 a 1.06,1.06 0 0 0 1.57,0.82 l 0.55,-0.3"
       id="path21" />
    <path
       stroke="#445358"
       vector-effect="non-scaling-stroke"
       d="m 1423.16,1222.6264 a 1.84,0.21 179.8 0 0 1.8407,0.2036 1.84,0.21 179.8 0 0 1.8393,-0.2164 1.84,0.21 179.8 0 0 -1.8407,-0.2036 1.84,0.21 179.8 0 0 -1.8393,0.2164"
       id="path22" />
    <path
       stroke="#445358"
       vector-effect="non-scaling-stroke"
       d="m 753.76,1280.52 c -0.41,-16.48 0.29,-31.76 1.08,-55.51 a 0.18,0.17 -88.3 0 0 -0.16,-0.18 h -0.01 a 0.18,0.18 0 0 0 -0.19,0.17 q -2.33,32.14 -0.97,63.61 0.19,4.38 1.87,10.42 a 1.11,1.1 -87.3 0 0 0.66,0.73 q 3.43,1.36 7.26,1.45 17.66,0.42 32.53,-0.15 c 5.2,-0.2 11.83,-0.93 15.84,-3.92 7.57,-5.65 12.29,-14.56 10,-24.33 q -0.33,-1.37 -2.32,-6.15 c -2.79,-6.68 -2.06,-11.85 -0.9,-19.24 q 0.14,-0.89 -0.69,-6.41 c -0.97,-6.5 -4.39,-11.41 -10.02,-14.73 q -0.11,-0.06 -0.02,0.01 3.32,2.6 5.88,6.31 a 0.02,0.02 0 0 1 -0.01,0.03 q -0.02,0 -0.04,0 a 0.11,0.01 49.7 0 1 -0.07,-0.07 c -4.84,-5.59 -13.29,-8.88 -20.37,-9.52 -7.58,-0.69 -18.03,-0.52 -25.87,-0.24 q -5.99,0.22 -10.99,1.33 a 1.38,1.36 88.2 0 0 -1.06,1.14 q -0.38,2.5 -0.44,5.58 c -0.34,16.73 -0.93,33.05 -0.68,49.66 a 0.16027063,0.15025372 -46.5 0 1 -0.31,0.01"
       id="path23" />
    <path
       stroke="#445358"
       vector-effect="non-scaling-stroke"
       d="m 1368.84,1296.24 q -0.92,-9.79 -3.99,-17.29 -0.77,-1.9 -4.36,-9.36 c -2.74,-5.7 -4.72,-11.14 -7.43,-16.95 -1.39,-2.99 -3.68,-5.6 -4.99,-8.94 q -5.42,-13.81 -6.7,-17.12 l -0.04,-0.13 q 0.02,-0.03 0.03,-0.07 a 0.17,0.16 45.2 0 1 0.3,0.01 l 8.23,20.59 a 0.27,0.14 67.7 0 0 0.23,0.19 l 0.14,0.09 a 0.29,0.28 -85 0 0 0.41,-0.35 l -8.05,-20 a 2.55,2.53 3.3 0 0 -1.12,-1.25 c -6.72,-3.71 -14.07,-3.09 -21.31,-1.03 a 3.14,2.97 -69.5 0 0 -1,0.49 q -1.31,0.98 -3.01,5.09 -6.48,15.67 -14.56,33.89 c -3.35,7.54 -5.85,14.17 -9.92,24.04 q -1.77,4.3 -0.25,10.77"
       id="path24" />
    <path
       stroke="#445358"
       vector-effect="non-scaling-stroke"
       d="m 968.67,1250.71 q 4.13,-10.32 -2.1,-20.01 a 0.09,0.09 0 0 0 -0.14,-0.02 l -0.25,0.23 a 0.24,0.23 -33.8 0 0 -0.06,0.28 q 4.97,9.3 1.99,19.4 a 0.24,0.24 0 0 0 0.15,0.3 h 0.01 a 0.32,0.32 0 0 0 0.4,-0.18"
       id="path25" />
    <path
       stroke="#445358"
       vector-effect="non-scaling-stroke"
       d="m 1448.1,1240.17 q 0.16,-0.08 0.18,-0.33 a 0.32,0.27 37.5 0 0 -0.04,-0.18 q -3.26,-5.84 -3.52,-5.7 -0.26,0.14 2.87,6.05 a 0.32,0.27 85.4 0 0 0.13,0.14 q 0.21,0.11 0.38,0.02"
       id="path26" />
    <path
       stroke="#445358"
       vector-effect="non-scaling-stroke"
       d="m 817.96,1247.46 c -2.92,7.65 -4.28,12.64 0.67,19.55 a 0.29,0.29 0 0 0 0.42,0.06 l 0.05,-0.03 a 0.25,0.25 0 0 0 0.06,-0.34 c -4.17,-6.43 -2.61,-11.69 -0.77,-19.07 a 0.24,0.24 0 0 0 -0.16,-0.29 l -0.01,-0.01 a 0.21,0.21 0 0 0 -0.26,0.13"
       id="path27" />
    <path
       stroke="#445358"
       vector-effect="non-scaling-stroke"
       d="m 792.19,1246.51 a 2.41,2.41 0 0 0 -2.42,-2.41 c -5.66,0.03 -10.56,0.39 -12.25,5.95 a 1.23,1.22 8.4 0 0 1.18,1.58 h 11.92 a 1.57,1.57 0 0 0 1.57,-1.57 v -3.55"
       id="path28" />
  </g>
  <path
     fill="#303c40"
     d="m 10.110104,724.76111 q 2.54,-0.31 5.08,-0.27 2.03,0.04 7.64,0.04 c 5.65,0.01 11.49,-0.93 16.84,-0.96 17.03,-0.09 38.81,-0.3 63.999996,-0.14 q 34.95,0.22 64.54,-0.07 c 23.42,-0.23 44.4,0.81 66.81,0.61 7.63,-0.07 17.96,0.18 19.91,-8.29 q 1.31,-5.72 1.29,-10.42 -0.33,-112.44 -0.28,-247.81 c 0.02,-52.97 0.2,-101.12 0.54,-141.32 q 0.06,-7.31 0.01,-14.59 -0.14,-19.49 -0.19,-54.91 -0.02,-12.27 0.07,-24.5 0.58,-79.22 -0.03,-106.73 -0.06,-2.39 -0.03,-8.27 0.09,-20.210002 -0.26,-93.380002 c -0.05,-8.3799996 -4.45,-11.4499996 -12.42,-11.4699996 -26.88,-0.06 -51.94,0.15 -79.94,-0.39 q -33.48,-0.63 -47.47,-0.32 -32.379996,0.73 -61.409996,0.16 c -8.34,-0.16 -22.46,0.36 -33.71,0.03 q -8.11,-0.24 -14.6899998,0.2 a 0.82,0.85 23.4 0 0 -0.48,0.2 l -3.56,3.08 a 0.97,0.95 68.9 0 0 -0.33,0.77 q 0.42,17.1799996 0.35,28.3699996 -0.09,12.77 -0.13,98.000002 -0.23,483.59 -0.17,532.87 c 0.01,11.45 0.39,32.34 0.1,48.49 q -0.07,3.67 0.98,5.59 1.26,2.33 3.75,4.33 -3.26,-1.4 -5.58,-3.76 a 2.24,2.19 14.2 0 1 -0.51000003,-0.83 q -0.8,-2.34 -0.8,-4.19 0.01,-185.25 0.01,-705.0000016 0,-1.23 0.74,-4.02 a 0.92,0.9 74.7 0 1 0.24000003,-0.43 l 4.37,-4.36 a 1.43,1.42 19.5 0 1 0.87,-0.41000004 q 5.2599998,-0.46 8.4099998,-0.46 110.299996,0.1 232.769996,0.02 2.26,0 4.19,0.61 a 2.8,2.82 81.6 0 1 1.44,1.06000004 c 2.91,4.17 4.95,6.62 5.02,10.9899996 q 0.05,3.47 0.02,692.000002 c 0,5.02 0.59,9.5 -1.09,12.54 -1.93,3.51 -5.91,7.59 -10.33,7.58 q -52.49,-0.12 -232.269996,-0.01 -0.97,0 -4.31,-0.23 z"
     id="path29" />
  <path
     fill="#303c40"
     d="m 874.4601,16.931108 6.39,-11.7899996 a 1.33,1.34 19.6 0 0 -0.92,-1.95 q -5.89,-1.12 -12.78,-1.17 -15.83,-0.11 -44.34,0.21 c -29.57,0.33 -61.87,-0.12 -89.89,0.02 -5.64,0.03 -12.01,-0.51 -17.28,-0.41 -22.71,0.43 -44.95,-0.21 -67.77,0.08 q -15.04,0.18 -62.2,0.61 c -5.54,0.05 -11.89,0.19 -15.62,3.25 q -4.69,3.87 -9.37,9.5999996 -25.91,31.74 -37.6,46.64 c -11.55,14.7 -27.36,33.08 -36.24,43.990002 -3.01,3.7 -4.95,7.36 -8.73,11.05 q -2.37,2.31 -9.95,12.08 -4.59,5.93 -9.97,12.06 c -7.09,8.07 -12.93,16.29 -20.89,26.06 -9.44,11.58 -14.45,17.06 -18.13,22.64 a 10.44,10.36 87.2 0 1 -2.09,2.32 q -3.49,2.86 -7.18,8.1 c -1.98,2.8 -4.18,4.34 -6.14,7.07 q -0.82,1.15 -3.85,4.83 -6.83,8.29 -9.73,12.19 c -4.13,5.57 -9.34,10.39 -12.66,15.4 q -3.28,4.97 -7.48,9.98 -10.11,12.05 -10.18,12.13 -4.25,5.65 -8.05,9.81 -4.99,5.46 -8.09,9.82 -3.71,5.22 -11.3,14.04 -5.76,6.69 -11.99,14.58 -1.95,2.48 -6.08,7.61 -5.57,6.94 -13.55,17.1 c -6.28,8 -9,13.38 -8.92,23.18 q 0.41,54.86 -0.01,113.57 -0.19,26.01 0.14,127.31 c 0.06,18.07 0.63,36.41 0.15,53.54 -0.4,14.45 0.11,29.09 -0.26,43.53 -0.25,10.02 -0.99,17.66 1.31,25.3 a 1.84,1.83 58.5 0 0 3.08,0.74 q 3.29,-3.46 6.07,-7.25 6.15,-8.39 13.5,-19.08 6,-8.73 9.98,-12.97 c 7.17,-7.67 13.4,-13.23 19.43,-21.54 6.92,-9.55 11.04,-16.35 18.23,-24.32 q 12.68,-14.05 15.69,-17.76 10.74,-13.25 16.6,-19.97 c 3.28,-3.75 5.37,-6.55 7.71,-9.87 5.9,-8.33 14.38,-15.7 20.35,-24.61 q 6.45,-9.62 11.12,-14.51 13.62,-14.24 16.42,-18.1 c 5.92,-8.18 12.14,-15.85 18.86,-22.9 q 3.58,-3.76 7.04,-8.84 c 5.94,-8.72 14.67,-18.14 21.12,-26.96 q 4.98,-6.81 17.14,-20.36 6.2,-6.9 25.36,-31.09 c 7.21,-9.11 13.99,-16.36 20.45,-24.9 11.56,-15.27 28.77,-34.76 38.4,-47.81 2.97,-4.03 7.25,-8.01 11.03,-13.26 q 1.45,-2.02 8.62,-10.09 5.02,-5.66 14.51,-18.91 c 4.52,-6.31 9.48,-10.89 13.74,-16.81 q 3.58,-4.96 10.13,-12.46 10.69,-12.25 17.25,-21.22 7.16,-9.8 11.62,-14.43 3.82,-3.97 13.1,-14.57 c 5,-5.72 8.89,-11.63 14.09,-17.94 q 20.62,-25.02 29.42,-36.55 c 2.6,-3.4 6.12,-6.99 8.75,-10.9 q 5.27,-7.89 13.02,-16.09 c 8.43,-8.92 13.39,-15.54 21.29,-24.58 4.29,-4.9 8.81,-11.43 12.95,-16.36 5.51,-6.570002 10.05,-13.820002 15.33,-19.740002 4.04,-4.52 6.71,-9.05 11.04,-13.96 q 3.87,-4.41 12.52,-14.57 c 8.27,-9.72 15.38,-20.96 26.54,-27.92 q -44.57,54.83 -89.28,109.550002 -22.66,27.75 -65.4,80.13 -4.22,5.17 -8.36,10.34 -8.35,10.42 -17.87,22.11 -30.11,36.96 -160.98,197.53 -7.62,9.35 -13.69,16.64 -7.97,9.58 -13.65,16.67 -19.52,24.33 -38.11,46.82 -6.53,7.91 -12.6,15.71 c -5.17,6.63 -11.29,13.45 -17.12,20.72 -28.95,36.13 -58.51,71.81 -88.19,108.25 -3.78,4.65 -7.55,8.73 -11.01,13.45 q -1.51,2.06 -4.56,5.7 -8.9,10.67 -21.47,26.4 -3.05,3.82 -6.78,6.34 a 0.81,0.81 0 0 1 -0.94,-0.03 l -4.11,-3.14 a 2.4,2.41 18.6 0 1 -0.94,-1.91 q 0.11,-152.68 0,-365.51 0,-9.67 5.54,-16.51 50.01,-61.79 101.75,-125.19 4.88,-5.98 8.55,-10.48 118.37,-145.030002 138.53,-169.730002 8.51,-10.43 16.97,-21.03 c 4.14,-5.1899996 9.97,-10.81999964 16.95,-11.13999964 q 2.38,-0.12 6.21,-0.12 267.42,-0.26 270.02,-0.27 9.54,-0.01 26.45,0.29 a 1.17,1.18 89.2 0 1 1.16,1.12000004 q 0.1,1.86 0.72,3.27 a 2.97,2.98 53.4 0 1 -0.46,3.1 z"
     id="path30" />
  <path
     fill="#ff6c27"
     d="m 1012.6301,502.10111 q -0.1,-1.68 -1.04,-2.85 -42.74,-52.55 -72.2,-88.34 -2.75,-3.34 -6.51,-5.78 a 2.11,2.13 44.8 0 0 -2.32,0.02 q -5.31,3.51 -9.2,8.44 -8.44,10.71 -42.7,52.5 -5.87,7.17 -14.18,9.21 -2.52,0.62 -17.12,0.63 -71.86,0.04 -290.68,-0.03 c -1.55,0 -6.73,0.02 -8.7,-1.52 a 2.27,2.26 2.6 0 1 -0.55,-0.6 l -1.48,-2.39 a 2.74,2.73 48.7 0 1 0.2,-3.17 q 92.97,-114.2 99.86,-122.52 7.87,-9.49 14.47,-17.78 2.51,-3.17 32.29,-39.69 122.38,-150.13 127.74,-156.74 c 12.93,-15.92 19.77,-24.1 30.14,-36.880002 q 36.97,-45.61 72.77,-89.2299996 c 1.46,-1.78 3.71,-5.05000004 6.07,-5.26000004 4.33,-0.39 6.03,0 8.96,3.61000004 q 94.59,116.2700016 107.49,132.0900016 10.2,12.51 14.35,17.49 8.6,10.35 14.38,17.49 47.16,58.2 93.87,115.21 10.84,13.24 82.81,101.9 7.38,9.08 17.4,21.36 74.04,90.75 174.07,213.3 c 8.71,10.66 16.8,21.01 25.77,31.6 q 3.16,3.73 11.51,14.07 26.81,33.21 39.65,48.52 c 4.63,5.51 -2.34,8.32 -6.83,8.32 q -146.77,0.14 -415.74,0.07 -1.48,-0.01 -20.35,-0.14 -6.19,-0.04 -8.72,-0.77 c -6.5,-1.87 -11.59,-6.48 -15.79,-11.76 q -9.3,-11.69 -21.04,-25.96 -15.46,-18.79 -30.05,-36.73 -3.59,-4.42 -5.35,-6.6 -19.89,-24.55 -38.42,-47.32 -19.56,-24.04 -36.26,-44.1 c -9.86,-11.84 -17.61,-22.16 -26.47,-32.18 q -2.54,-2.87 -4.85,-6.81 a 0.65,0.66 52.2 0 1 0.11,-0.79 l 4.71,-4.72 a 2.33,2.33 0 0 1 1.32,-0.66 q 1.36,-0.21 4.4,-0.19 52.39,0.34 104.25,0.11 c 3.11,-0.02 8.2,0.02 7.96,-4.43 z"
     id="path31" />
  <path
     fill="#576970"
     d="m 10.110104,724.76111 q -1.9899998,-0.27 -3.1899998,-1.1 -2.49,-2 -3.75,-4.33 -1.05,-1.92 -0.98,-5.59 c 0.29,-16.15 -0.09,-37.04 -0.1,-48.49 q -0.06,-49.28 0.17,-532.87 0.04,-85.230002 0.13,-98.000002 0.07,-11.19 -0.35,-28.3699996 a 0.97,0.95 68.9 0 1 0.33,-0.77 l 3.56,-3.08 a 0.82,0.85 23.4 0 1 0.48,-0.2 q 6.5799998,-0.44 14.6899998,-0.2 c 11.25,0.33 25.37,-0.19 33.71,-0.03 q 29.03,0.57 61.409996,-0.16 13.99,-0.31 47.47,0.32 c 28,0.54 53.06,0.33 79.94,0.39 7.97,0.02 12.37,3.09 12.42,11.4699996 q 0.35,73.17 0.26,93.380002 -0.03,5.88 0.03,8.27 0.61,27.51 0.03,106.73 -0.09,12.23 -0.07,24.5 0.05,35.42 0.19,54.91 0.05,7.28 -0.01,14.59 c -0.34,40.2 -0.52,88.35 -0.54,141.32 q -0.05,135.37 0.28,247.81 0.02,4.7 -1.29,10.42 c -1.95,8.47 -12.28,8.22 -19.91,8.29 -22.41,0.2 -43.39,-0.84 -66.81,-0.61 q -29.59,0.29 -64.54,0.07 c -25.189996,-0.16 -46.969996,0.05 -63.999996,0.14 -5.35,0.03 -11.19,0.97 -16.84,0.96 q -5.61,0 -7.64,-0.04 -2.54,-0.04 -5.08,0.27 z"
     id="path32" />
  <path
     fill="#576970"
     d="m 874.4601,16.931108 -9.75,11.92 c -11.16,6.96 -18.27,18.2 -26.54,27.92 q -8.65,10.16 -12.52,14.57 c -4.33,4.91 -7,9.44 -11.04,13.96 -5.28,5.92 -9.82,13.17 -15.33,19.740002 -4.14,4.93 -8.66,11.46 -12.95,16.36 -7.9,9.04 -12.86,15.66 -21.29,24.58 q -7.75,8.2 -13.02,16.09 c -2.63,3.91 -6.15,7.5 -8.75,10.9 q -8.8,11.53 -29.42,36.55 c -5.2,6.31 -9.09,12.22 -14.09,17.94 q -9.28,10.6 -13.1,14.57 -4.46,4.63 -11.62,14.43 -6.56,8.97 -17.25,21.22 -6.55,7.5 -10.13,12.46 c -4.26,5.92 -9.22,10.5 -13.74,16.81 q -9.49,13.25 -14.51,18.91 -7.17,8.07 -8.62,10.09 c -3.78,5.25 -8.06,9.23 -11.03,13.26 -9.63,13.05 -26.84,32.54 -38.4,47.81 -6.46,8.54 -13.24,15.79 -20.45,24.9 q -19.16,24.19 -25.36,31.09 -12.16,13.55 -17.14,20.36 c -6.45,8.82 -15.18,18.24 -21.12,26.96 q -3.46,5.08 -7.04,8.84 c -6.72,7.05 -12.94,14.72 -18.86,22.9 q -2.8,3.86 -16.42,18.1 -4.67,4.89 -11.12,14.51 c -5.97,8.91 -14.45,16.28 -20.35,24.61 -2.34,3.32 -4.43,6.12 -7.71,9.87 q -5.86,6.72 -16.6,19.97 -3.01,3.71 -15.69,17.76 c -7.19,7.97 -11.31,14.77 -18.23,24.32 -6.03,8.31 -12.26,13.87 -19.43,21.54 q -3.98,4.24 -9.98,12.97 -7.35,10.69 -13.5,19.08 -2.78,3.79 -6.07,7.25 a 1.84,1.83 58.5 0 1 -3.08,-0.74 c -2.3,-7.64 -1.56,-15.28 -1.31,-25.3 0.37,-14.44 -0.14,-29.08 0.26,-43.53 0.48,-17.13 -0.09,-35.47 -0.15,-53.54 q -0.33,-101.3 -0.14,-127.31 0.42,-58.71 0.01,-113.57 c -0.08,-9.8 2.64,-15.18 8.92,-23.18 q 7.98,-10.16 13.55,-17.1 4.13,-5.13 6.08,-7.61 6.23,-7.89 11.99,-14.58 7.59,-8.82 11.3,-14.04 3.1,-4.36 8.09,-9.82 3.8,-4.16 8.05,-9.81 0.07,-0.08 10.18,-12.13 4.2,-5.01 7.48,-9.98 c 3.32,-5.01 8.53,-9.83 12.66,-15.4 q 2.9,-3.9 9.73,-12.19 3.03,-3.68 3.85,-4.83 c 1.96,-2.73 4.16,-4.27 6.14,-7.07 q 3.69,-5.24 7.18,-8.1 a 10.44,10.36 87.2 0 0 2.09,-2.32 c 3.68,-5.58 8.69,-11.06 18.13,-22.64 7.96,-9.77 13.8,-17.99 20.89,-26.06 q 5.38,-6.13 9.97,-12.06 7.58,-9.77 9.95,-12.08 c 3.78,-3.69 5.72,-7.35 8.73,-11.05 8.88,-10.910002 24.69,-29.290002 36.24,-43.990002 q 11.69,-14.9 37.6,-46.64 4.68,-5.7299996 9.37,-9.5999996 c 3.73,-3.06 10.08,-3.2 15.62,-3.25 q 47.16,-0.43 62.2,-0.61 c 22.82,-0.29 45.06,0.35 67.77,-0.08 5.27,-0.1 11.64,0.44 17.28,0.41 28.02,-0.14 60.32,0.31 89.89,-0.02 q 28.51,-0.32 44.34,-0.21 6.89,0.05 12.78,1.17 a 1.33,1.34 19.6 0 1 0.92,1.95 z"
     id="path33" />
  <path
     fill="#303c40"
     d="m 547.1701,506.54111 c -4.62,3.69 -4.76,7.24 -1.19,11.96 q 5.64,7.44 8.66,10.57 4.46,4.6 8.07,9.74 5.05,7.21 13.05,16.26 c 1.21,1.36 3.04,2.27 4.25,3.48 q 8.93,8.98 16.01,20.58 a 0.16,0.15 9 0 1 -0.25,0.18 l -3.69,-4.2 a 0.22,0.21 49.8 0 0 -0.3,-0.03 l -0.01,0.01 a 0.23,0.22 45.8 0 0 0,0.33 q 9.36,9.15 14.9,17.46 6.25,9.37 8.56,11.87 a 0.15,0.15 0 0 0 0.21,0.01 0.21,0.22 39.1 0 0 -0.02,-0.24 l -5.04,-6.14 a 0.27,0.26 56.5 0 1 0.08,-0.4 l 0.43,-0.22 a 0.04,0.04 0 0 1 0.05,0.01 q 20.22,25.09 29.95,37.58 3.45,4.42 6.96,7.96 5.59,5.64 7.12,7.79 2.78,3.89 8.35,12.4 2.47,3.79 5.94,6.38 8.52,8.83 16.72,18.02 4.2,4.71 7.97,11.25 2.31,4.01 10.05,13.02 c 6.05,7.05 11.34,11.34 20.76,11.3 20.83,-0.09 40.2,-0.62 60.22,-0.43 q 59.15,0.57 107.69,0.09 21.79,-0.21 30.85,0.21 10.37,0.49 24.53,0.07 7.87,-0.23 25.87,0.3 c 11.37,0.34 20.54,-0.11 33.16,-0.05 q 1.91,0.01 5.69,-1.03 a 0.69,0.68 82.2 0 0 0.5,-0.66 q -0.03,-4.68 -2.29,-7.65 c -11.92,-15.72 -24.98,-30.54 -37.19,-45.98 q -4.31,-5.45 -18.68,-22.82 c -3.66,-4.44 -6.72,-7.25 -9.4,-11.2 q -1.96,-2.88 -6.54,-8.42 -25.37,-30.66 -34.74,-42.2 c -1.79,-2.2 -3.9,-4.36 -5.83,-6.74 -3.59,-4.46 -7.71,-11.76 -12.16,-16.24 -4.06,-4.08 -6.64,-9.57 -10.8,-13.93 q -7.83,-8.19 -23.35,-27.47 -5.55,-6.89 -13.99,-9.73 -4.72,-1.59 -15.96,-1.52 -63.68,0.35 -65.96,0.37 -35.25,0.26 -65.94,0.19 -0.34,0 -83.76,-0.31 -15.43,-0.05 -34.65,-0.22 -4.86,-0.04 -9.58,-1.2 131.67,0.11 263.35,0.06 9.23,-0.01 13.63,1.42 8.84,2.86 15.07,10.65 6.17,7.73 7.81,9.73 23.24,28.34 44.82,55.15 2.66,3.31 5.16,6.37 41.93,51.22 102.06,125.54 1.21,1.5 1.57,3.12 c 0.66,2.97 -2.97,6.04 -5.44,6.04 q -124.28,-0.06 -289.3,-0.02 c -8.41,0 -15.03,-7.06 -20.17,-13.18 q -8.89,-10.57 -29.05,-35.51 c -6.89,-8.51 -13.22,-15.61 -19.44,-23.63 q -1.6,-2.07 -7.71,-9.51 c -34.17,-41.59 -66.6,-81.54 -103.96,-127.19 -1.49,-1.82 -1.91,-3.14 -0.43,-5.25 q 2.9,-4.13 6.75,-4.15 z"
     id="path34" />
  <path
     fill="#576970"
     d="m 562.4501,506.90111 q 4.72,1.16 9.58,1.2 19.22,0.17 34.65,0.22 83.42,0.31 83.76,0.31 30.69,0.07 65.94,-0.19 2.28,-0.02 65.96,-0.37 11.24,-0.07 15.96,1.52 8.44,2.84 13.99,9.73 15.52,19.28 23.35,27.47 c 4.16,4.36 6.74,9.85 10.8,13.93 4.45,4.48 8.57,11.78 12.16,16.24 1.93,2.38 4.04,4.54 5.83,6.74 q 9.37,11.54 34.74,42.2 4.58,5.54 6.54,8.42 c 2.68,3.95 5.74,6.76 9.4,11.2 q 14.37,17.37 18.68,22.82 c 12.21,15.44 25.27,30.26 37.19,45.98 q 2.26,2.97 2.29,7.65 a 0.69,0.68 82.2 0 1 -0.5,0.66 q -3.78,1.04 -5.69,1.03 c -12.62,-0.06 -21.79,0.39 -33.16,0.05 q -18,-0.53 -25.87,-0.3 -14.16,0.42 -24.53,-0.07 -9.06,-0.42 -30.85,-0.21 -48.54,0.48 -107.69,-0.09 c -20.02,-0.19 -39.39,0.34 -60.22,0.43 -9.42,0.04 -14.71,-4.25 -20.76,-11.3 q -7.74,-9.01 -10.05,-13.02 -3.77,-6.54 -7.97,-11.25 -8.2,-9.19 -16.72,-18.02 -0.2,-0.2 -0.35,-0.4 0,-0.01 0,0 0.15,0.2 0.35,0.4 -3.47,-2.59 -5.94,-6.38 -5.57,-8.51 -8.35,-12.4 -1.53,-2.15 -7.12,-7.79 -3.51,-3.54 -6.96,-7.96 -9.73,-12.49 -29.95,-37.58 a 0.04,0.04 0 0 0 -0.05,-0.01 l -0.43,0.22 a 0.27,0.26 56.5 0 0 -0.08,0.4 l 5.04,6.14 a 0.21,0.22 39.1 0 1 0.02,0.24 0.15,0.15 0 0 1 -0.21,-0.01 q -2.31,-2.5 -8.56,-11.87 -5.54,-8.31 -14.9,-17.46 a 0.23,0.22 45.8 0 1 0,-0.33 l 0.01,-0.01 a 0.22,0.21 49.8 0 1 0.3,0.03 l 3.69,4.2 a 0.16,0.15 9 0 0 0.25,-0.18 q -7.08,-11.6 -16.01,-20.58 c -1.21,-1.21 -3.04,-2.12 -4.25,-3.48 q -8,-9.05 -13.05,-16.26 -3.61,-5.14 -8.07,-9.74 -3.02,-3.13 -8.66,-10.57 c -3.57,-4.72 -3.43,-8.27 1.19,-11.96 z"
     id="path35" />
  <path
     fill="#ff6c27"
     d="m 503.9101,524.31111 c 3.58,0 7.77,5.01 9.91,7.67 q 1.93,2.41 101.21,124.28 41.7,51.19 48.65,59.61 1.37,1.67 2.2,4.43 a 1.22,1.23 49.6 0 1 -0.08,0.95 c -1.2,2.29 -5.12,3.64 -7.55,3.67 q -22.05,0.26 -154.34,0.25 -132.3,0 -154.34,-0.26 c -2.44,-0.03 -6.36,-1.38 -7.56,-3.67 a 1.23,1.22 40.5 0 1 -0.08,-0.95 q 0.83,-2.76 2.2,-4.43 6.95,-8.42 48.66,-59.61 99.29,-121.86 101.22,-124.27 c 2.14,-2.66 6.33,-7.67 9.9,-7.67 z"
     id="path36" />
  <path
     fill="#303c40"
     d="m 669.2601,669.88111 q -0.2,-0.2 -0.35,-0.4 0,-0.01 0,0 0.15,0.2 0.35,0.4 z"
     id="path37" />
  <path
     fill="#303c40"
     d="m 0.94010417,887.91111 q -0.95,-1.77 -0.94000000333,-5.52 0.0700000033,-34.73 0.0100000033,-117 0,-1.41 0.51,-3.34 a 1.38,1.4 79.6 0 1 0.54000003,-0.77 l 4.56,-3.25 a 1.58,1.61 23.3 0 1 0.61,-0.25 q 2.34,-0.38 4.1899998,-0.38 864.899996,0.03 1493.359996,-0.03 7.79,0 8.85,0.24 c 4.67,1.05 8.13,4.72 8.28,9.84 q 0.16,5.67 0.14,12.69 -0.14,75.63 0.06,102.55 0.03,3.45 -1.68,5.78 a 4.29,4.36 86.6 0 1 -0.64,0.71 q -4.86,4.4 -14.12,4.4 -587.03,-0.04 -1489.499996,-0.01 c -5.7999998,0 -7.8399998,-0.99 -13.5199998,-4.88 a 2.17,2.21 2.1 0 1 -0.71000003,-0.78 z M 1516.8901,762.75111 q -4.49,-2.47 -10.13,-2.48 c -19.76,-0.06 -39.09,0.38 -58.62,0.14 q -6.59,-0.08 -19.12,0.06 c -25.99,0.28 -60.67,-0.8 -79.97,-0.09 -8.22,0.3 -15.43,0.88 -22.54,0.5 -6.37,-0.34 -13.62,-0.71 -20.87,-0.66 q -33.55,0.24 -68,0.14 c -19.89,-0.05 -41.7,0.72 -62.1,0.11 -19.02,-0.57 -42.24,0.43 -62.44,0.05 -18.67,-0.36 -37.54,0.18 -59.28,-0.28 -17.37,-0.38 -32.52,0.26 -49.53,-0.19 -12.05,-0.31 -28.24,0.38 -39.23,0.19 q -3.13,-0.05 -91.42,0.34 -26.39,0.11 -59.31,-0.25 -32.22,-0.34 -59.32,0.09 -33.93,0.55 -48.84,0.18 -35.77,-0.87 -41.61,-0.45 -0.29,0.02 -33.05,0.21 c -28.62,0.16 -57.38,-0.73 -84.03,0.18 -4.85,0.17 -10.59,-0.18 -15.78,-0.15 -50.01,0.24 -100.25,-0.12 -142.49,-0.15 -12.25,0 -22.27,0.82 -32.99,0.38 q -10.53,-0.43 -24.72,-0.32 -38.57,0.3 -76.32,-0.4 c -9.5,-0.18 -21.17,0.48 -29.71,0.44 -36.52,-0.21 -70.02,0.14 -106.13,-0.06 q -36.199996,-0.19 -64.209996,0.23 c -14.71,0.22 -28.18,-0.34 -43.62,-0.75 -7.6399998,-0.21 -8.7799998,4.68 -8.5399998,11.51 q 0.16,4.58 -0.72,60.71 c -0.28,18.09 0.11,29.67 0.05,51.9 q -0.01,3.51 2.09,5.82 0.91,1 4.93,2.61 a 1.97,1.93 44.5 0 0 1.4499998,0 l 1.28,-0.51 a 1,1.04 35.6 0 1 0.37,-0.07 q 16.86,0.08 37,-0.51 11.24,-0.33 21.39,-0.07 15.75,0.4 21.37,0.37 c 17.619996,-0.07 32.109996,0.22 47.239996,0.12 38.71,-0.24 83.45,0.31 127.73,-0.27 q 23.61,-0.3 29.49,-0.1 23.16,0.78 68.54,0.24 7.41,-0.09 36.87,0.15 c 6.46,0.05 14.08,-0.43 20.38,-0.42 q 139.02,0.14 146.15,0.14 5.91,0.01 10.59,0.05 47.22,0.4 107.23,0.33 c 18.18,-0.02 34.61,-0.7 52.9,-0.45 45.91,0.62 109.7,-0.32 175.53,0.16 32.66,0.24 67.4,-0.24 100.32,-0.18 18.37,0.03 57.67,0.36 88.57,0.04 29.98,-0.31 61.5,0.19 89.82,0.19 55.47,-0.02 107.88,-0.24 158.9,0.14 q 26.74,0.21 46.24,-0.29 17.2,-0.43 85.58,0.3 c 9.24,0.09 17.08,0.74 25.45,0.25 q 4.96,-0.29 6.17,-3.7 1.67,-4.73 2.16,-10.83 c 0.98,-12.15 0.21,-29.93 0.35,-41.72 0.33,-28.03 0.88,-47.84 -0.53,-71.38 a 1.88,1.88 0 0 0 -0.97,-1.54 z"
     id="path38" />
  <path
     fill="#576970"
     d="m 1516.8901,762.75111 a 1.88,1.88 0 0 1 0.97,1.54 c 1.41,23.54 0.86,43.35 0.53,71.38 -0.14,11.79 0.63,29.57 -0.35,41.72 q -0.49,6.1 -2.16,10.83 -1.21,3.41 -6.17,3.7 c -8.37,0.49 -16.21,-0.16 -25.45,-0.25 q -68.38,-0.73 -85.58,-0.3 -19.5,0.5 -46.24,0.29 c -51.02,-0.38 -103.43,-0.16 -158.9,-0.14 -28.32,0 -59.84,-0.5 -89.82,-0.19 -30.9,0.32 -70.2,-0.01 -88.57,-0.04 -32.92,-0.06 -67.66,0.42 -100.32,0.18 -65.83,-0.48 -129.62,0.46 -175.53,-0.16 -18.29,-0.25 -34.72,0.43 -52.9,0.45 q -60.01,0.07 -107.23,-0.33 -4.68,-0.04 -10.59,-0.05 -7.13,0 -146.15,-0.14 c -6.3,-0.01 -13.92,0.47 -20.38,0.42 q -29.46,-0.24 -36.87,-0.15 -45.38,0.54 -68.54,-0.24 -5.88,-0.2 -29.49,0.1 c -44.28,0.58 -89.02,0.03 -127.73,0.27 -15.13,0.1 -29.62,-0.19 -47.239996,-0.12 q -5.62,0.03 -21.37,-0.37 -10.15,-0.26 -21.39,0.07 -20.14,0.59 -37,0.51 a 1,1.04 35.6 0 0 -0.37,0.07 l -1.28,0.51 a 1.97,1.93 44.5 0 1 -1.4499998,0 q -4.02,-1.61 -4.93,-2.61 -2.1,-2.31 -2.09,-5.82 c 0.06,-22.23 -0.33,-33.81 -0.05,-51.9 q 0.88,-56.13 0.72,-60.71 c -0.24,-6.83 0.9,-11.72 8.5399998,-11.51 15.44,0.41 28.91,0.97 43.62,0.75 q 28.01,-0.42 64.209996,-0.23 c 36.11,0.2 69.61,-0.15 106.13,0.06 8.54,0.04 20.21,-0.62 29.71,-0.44 q 37.75,0.7 76.32,0.4 14.19,-0.11 24.72,0.32 c 10.72,0.44 20.74,-0.38 32.99,-0.38 42.24,0.03 92.48,0.39 142.49,0.15 5.19,-0.03 10.93,0.32 15.78,0.15 26.65,-0.91 55.41,-0.02 84.03,-0.18 q 32.76,-0.19 33.05,-0.21 5.84,-0.42 41.61,0.45 14.91,0.37 48.84,-0.18 27.1,-0.43 59.32,-0.09 32.92,0.36 59.31,0.25 88.29,-0.39 91.42,-0.34 c 10.99,0.19 27.18,-0.5 39.23,-0.19 17.01,0.45 32.16,-0.19 49.53,0.19 21.74,0.46 40.61,-0.08 59.28,0.28 20.2,0.38 43.42,-0.62 62.44,-0.05 20.4,0.61 42.21,-0.16 62.1,-0.11 q 34.45,0.1 68,-0.14 c 7.25,-0.05 14.5,0.32 20.87,0.66 7.11,0.38 14.32,-0.2 22.54,-0.5 19.3,-0.71 53.98,0.37 79.97,0.09 q 12.53,-0.14 19.12,-0.06 c 19.53,0.24 38.86,-0.2 58.62,-0.14 q 5.64,0.01 10.13,2.48 z m -1418.929996,99.03 14.899996,0.02 a 1.25,1.25 0 0 0 1.25,-1.25 v -21.49 a 1.17,1.17 0 0 1 0.46,-0.93 q 2.6,-1.99 4.51,-5.01 a 1.8,1.8 0 0 1 2.34,-0.64 q 1.54,0.79 2.74,2.41 8.09,10.89 16.75,23.22 c 0.98,1.39 1.62,2.95 3.62,2.93 6.49,-0.1 12.31,-0.52 17.66,1.21 a 0.6,0.6 0 0 0 0.78,-0.61 l -0.13,-2.33 q -1.32,-5.75 -3.45,-8.64 c -5.94,-8.05 -12.18,-15.8 -18.21,-26.01 -1.74,-2.95 -3.08,-7.66 -0.23,-10.44 6.18,-6.02 11.02,-11.71 16.21,-17.36 q 1.91,-2.08 3.06,-3.85 1.25,-1.92 2.59,-4.2 -3.12,-1.4 -7.22,-1.23 2.96,-0.79 6.11,0.02 a 0.13,0.14 15.7 0 0 0.16,-0.1 0.14,0.14 0 0 0 -0.09,-0.17 q -3.27,-1.1 -6.69,-1.62 a 0.01,0.01 0 0 1 0,-0.02 q 0.01,-0.01 0.03,-0.02 a 0.22,0.19 28.1 0 1 0.14,-0.03 l 6.29,0.41 a 1.3,1.32 2.3 0 1 1.22,1.34 l -0.11,4.85 a 0.02,0.04 80.2 0 0 0.05,0.01 q 0.01,0 0.03,0 a 0.05,0.08 3.6 0 0 0.04,-0.06 q 0.6,-2.86 -0.01,-5.78 a 0.87,0.86 1.1 0 0 -0.64,-0.66 q -8.41,-2 -16.82,-0.67 -4.16,0.65 -7.4,4.02 c -5.36,5.58 -10.36,11.92 -16.78,16.04 a 0.76,0.77 51.4 0 1 -0.95,-0.1 q -1.74,-1.71 -2.2,-4.33 -0.52,-2.92 -1.68,-12.51 a 1.64,1.64 0 0 0 -1.22,-1.4 q -9.35,-2.35 -18.819996,0.32 a 0.63,0.66 85 0 0 -0.47,0.54 q -0.53,4.52 -0.56,10.83 c -0.02,4.76 -0.94,10.03 -1.06,14.5 q -0.37,12.9 0.13,36.35 0.1,4.97 2,11.6 a 0.89,0.89 0 0 0 0.67,0.62 z m 686.889996,-51.83 q 0.4,4.43 4.53,10.46 a 0.42,0.42 0 0 1 -0.19,0.62 c -16.26,6.51 -18.47,27.58 -4.42,37.84 2.62,1.92 10.4,4.43 12.91,4.36 q 6.67,-0.19 7.76,-0.16 a 6.75,6.64 36.7 0 0 2.26,-0.31 q 4.67,-1.51 8.04,-3.12 c 1.89,-0.91 3.52,-2.92 5.97,-3.64 a 2.03,2.02 61.2 0 1 2.12,0.62 l 5.83,6.74 a 1.58,1.58 0 0 0 2.28,0.11 l 2.69,-2.56 a 1.38,1.73 64.2 0 1 0.19,-0.15 q 4.91,-2.97 8.33,-6.47 -3.1,-6.59 -7.49,-9.52 a 1.02,1.02 0 0 1 -0.28,-1.42 l 3.07,-4.54 a 0.25,0.25 0 0 0 -0.05,-0.33 v -0.01 a 0.24,0.25 37.4 0 0 -0.34,0.05 l -2.43,3.06 a 2,1.93 69.6 0 0 -0.41,0.94 q -0.35,2.47 1.02,3.48 a 0.15,0.16 28.4 0 1 0.05,0.19 q -0.01,0.03 -0.04,0.05 a 0.15,0.13 44.8 0 1 -0.19,-0.01 l -1.62,-1.52 a 0.81,0.81 0 0 1 -0.22,-0.87 l 1.64,-4.74 5.62,-10.42 a 1.14,1.13 23.5 0 0 -0.64,-1.62 q -3.69,-1.2 -7.42,-4.03 c -1.8,-1.37 -3.18,-1.95 -4.68,0.18 q -3.06,4.32 -4.97,9.49 a 0.53,0.53 0 0 1 -0.81,0.25 q -4.8,-3.51 -7.84,-7.96 a 1.1,1.1 0 0 1 0.7,-1.7 c 6.04,-1.12 9.74,-6.42 11.97,-11.81 q 2.84,-6.87 -0.62,-13.63 -2.08,-4.07 -4,-5.79 c -5.02,-7.03 -12.44,-7.94 -20.49,-7.26 -9.08,0.78 -17.34,6.12 -19.68,15.09 -1.24,4.74 -0.88,7.89 -0.64,14.26 q 0.22,5.72 -1.63,8.42 c -4.83,7.07 -7.71,11.33 -7.01,19.76 q 1.03,12.27 10.51,18.59 a 0.45,0.46 33.5 0 0 0.62,-0.13 v -0.01 a 0.46,0.47 32.5 0 0 -0.14,-0.65 q -6.17,-3.81 -8.61,-11.31 -4.4,-13.49 4.08,-22.92 3.17,-3.53 4.81,-5.36 a 1.15,1.16 64 0 0 0.29,-0.84 z m -351.8,-18.36 0.05,10.62 a 1.39,1.38 0 0 0 1.39,1.38 h 20.05 a 0.73,0.73 0 0 1 0.73,0.73 v 56.06 a 1.3,1.3 0 0 0 1.3,1.3 l 15.43,0.01 q 1.78,-3.5 2.1,-5.18 0.63,-3.33 0.63,-11.39 0.02,-26.83 0.07,-38.39 a 0.57,0.56 88.9 0 1 0.53,-0.56 c 4.92,-0.3 13.26,-0.06 19.95,-2.42 a 0.94,0.93 84.3 0 0 0.61,-0.75 q 1.02,-7.35 0.28,-14.91 a 0.97,0.98 12.6 0 0 -0.46,-0.73 q -4.67,-2.83 -13.31,-2.76 c -16.3,0.14 -24.84,0.23 -31.17,0.18 q -9.47,-0.08 -17.58,1.78 a 1.7,1.7 0 0 0 -1.32,1.49 q -0.72,7.27 0.62,14.31 a 0.05,0.05 0 0 0 0.09,-0.01 z m 748.43,-6.46 0.03,0.9 a 0.11,0.11 0 0 0 0.12,0.1 h 0.2 a 0.56,13.15 87.8 0 0 13.12,-1.07 0.56,13.15 87.8 0 0 -13.17,-0.05 h -0.2 a 0.11,0.11 0 0 0 -0.1,0.12 z m 96.66,76.82 14.55,-0.46 a 1.7,1.7 0 0 0 1.65,-1.72 l -0.39,-39.36 q 2.95,1.82 3.98,3.65 3.85,6.76 9.47,15.63 1.98,3.12 4.79,5.97 a 0.91,0.92 60.9 0 0 0.86,0.24 q 5.87,-1.37 9.33,-6.57 3.13,-4.7 6.72,-9.7 a 0.7,0.7 0 0 1 1.26,0.29 c 1.14,7.02 0.82,14.39 1.3,22.91 0.24,4.25 1.04,10.06 6.56,9.8 q 8.22,-0.39 12.91,-0.4 a 0.82,0.82 0 0 0 0.7,-0.39 q 2.6,-4.14 2.7,-12 0.35,-27.71 0.25,-53.83 c -0.02,-3.97 -0.83,-8.36 -4.62,-9.69 -7.81,-2.74 -17.89,-2.44 -22.74,5.58 q -5.06,8.35 -7.37,12.09 -2.42,3.91 -6.5,5.69 a 0.84,0.83 59.7 0 1 -1,-0.27 q -5.06,-6.75 -10.04,-14.65 c -3.46,-5.51 -5.91,-7.4 -12.42,-7.88 q -5.18,-0.39 -11.75,-0.36 a 1.3,1.3 0 0 0 -1.19,0.78 q -3.03,6.8 -2.81,14.86 0.02,0.7 0.38,17.94 c 0.2,9.4 -0.38,21.89 0.04,32.02 q 0.24,5.63 2.56,9.61 a 0.55,0.55 0 0 0 0.52,0.26 z m -1060.68,-0.19 9.44,-0.07 a 1.41,1.41 0 0 0 1.4,-1.41 v -26.95 a 0.61,0.61 0 0 1 0.61,-0.61 h 26.69 a 0.75,0.76 0 0 1 0.75,0.76 q -0.06,13.5 0.1,25.91 c 0.03,2.44 1.39,2.79 3.45,2.33 q 0.43,0.61 1.08,0.03 l 11.68,-0.06 q 1.11,0.51 2.02,0.19 a 0.93,0.92 87.9 0 0 0.61,-0.67 q 1.39,-5.82 1.45,-12.6 0.17,-19.36 0.04,-55.11 -0.01,-0.65 -0.43,-5.25 a 0.95,0.94 13 0 0 -0.47,-0.74 c -5.53,-3.18 -14,-2.87 -19.89,-0.88 a 0.88,0.89 86.8 0 0 -0.57,0.63 c -1.89,8.85 -1.43,18.27 -2.03,25.56 a 1.86,1.87 3.5 0 1 -1.93,1.71 l -18.49,-0.68 a 0.75,0.75 0 0 1 -0.73,-0.71 q -0.23,-3.29 -0.65,-19.45 -0.02,-0.95 -0.91,-5.97 a 0.84,0.85 3.4 0 0 -0.58,-0.66 q -9.4,-2.95 -19.38,-0.5 a 0.9,0.91 86.7 0 0 -0.68,0.76 q -0.83,6.7 -0.92,13.64 -0.17,13.11 -0.39,36.52 -0.06,7.24 0.41,15.13 0.3,4.97 1.09,8.07 a 1.68,1.69 82 0 0 1.7,1.27 z m 104.05,-0.04 16.6,-0.05 q 3.81,-1.96 5.85,-6.52 1.96,-4.36 2.72,-6.41 a 0.77,0.77 0 0 1 0.67,-0.49 q 10.14,-0.7 22,0.04 4.87,0.3 6.57,3.85 2.9,6.07 5.87,8.88 8.37,0.54 16.38,0.86 0.37,0.01 1.17,-0.4 0.21,0.21 0.47,-0.16 a 0.67,0.69 64.3 0 0 0.14,-0.38 q 0.34,-6.86 -2.83,-13.78 c -7.4,-16.16 -15.18,-35.99 -23.36,-54.57 q -2.81,-6.41 -9.99,-6.69 -3.2,-0.13 -6.65,-0.3 a 0.11,0.08 11 0 1 -0.11,-0.12 q 0.01,-0.01 0.01,-0.03 a 0.1,0.07 9.2 0 1 0.08,-0.04 l 9.35,0.04 a 0.09,0.09 0 0 0 0.09,-0.09 v -0.29 a 0.25,0.25 0 0 0 -0.24,-0.25 c -7.18,-0.29 -16.17,-0.5 -19.06,7.35 q -2.32,6.29 -4.84,11.58 c -2.77,5.85 -5.82,13.96 -9.06,21.38 a 0.08,0.08 0 0 0 0.04,0.11 l 0.25,0.12 a 0.13,0.13 0 0 0 0.16,-0.06 l 9.45,-20.75 a 0.04,0.04 0 0 1 0.07,0.02 q 0,0.07 -0.08,0.23 -8.36,19.24 -12.77,30.04 c -2.23,5.45 -5.01,10.57 -7.54,15.34 q -2.21,4.17 -1.41,11.54 z m 1085.42,-4.33 0.03,3.23 a 1.04,1.05 89.7 0 0 1.05,1.03 l 15.38,-0.01 q 0.31,-0.12 0.7,-0.04 a 0.49,0.48 12.7 0 0 0.58,-0.36 q 1.23,-5.17 1.29,-8.96 0.07,-3.43 -0.35,-64.1 a 1.53,1.53 0 0 0 -1.02,-1.44 c -4.25,-1.52 -13.57,-2.86 -17.26,0 -3.9,3.03 -4.01,9.35 -3.97,13.49 q 0.19,21.72 0.22,53.95 0,0.99 0.49,2.88 a 0.18,0.18 0 0 0 0.35,-0.04 q -0.14,-36.82 -0.43,-64.14 -0.01,-0.48 0.33,-0.48 a 0.11,0.11 0 0 1 0.11,0.11 v 53.99 a 0.14,0.14 0 0 0 0.27,0.07 q 0.14,-0.26 0.09,-0.77 0.18,5.87 2.14,11.59 z m -474.25,4.31 q 7.68,-0.8 15.1,0.13 a 2.5,2.5 0 0 0 2.65,-1.61 l 5.24,-14.12 a 0.87,0.87 0 0 1 0.8,-0.56 l 8.89,-0.03 q 1.83,0.57 3.63,0.02 l 2.38,-0.02 q 1.24,0.53 2.6,0.02 l 0.89,0.03 q 1.29,0.48 2.36,-0.04 l 8.95,0.04 a 0.88,0.9 80.3 0 1 0.84,0.58 l 5.17,14.21 a 2.34,2.34 0 0 0 2.47,1.53 q 7.56,-0.89 14.89,-0.15 a 0.7,0.7 0 0 0 0.74,-0.47 q 0.29,-0.84 -0.36,-2.12 -0.57,-9.49 -4.57,-17.94 -7.99,-16.84 -12.56,-28.49 c -2.38,-6.09 -4.09,-11.94 -7.18,-17.86 -2.88,-5.5 -4.42,-8.47 -10.19,-9.16 -6.32,-0.76 -13.14,-0.82 -16.65,5.59 q -5.68,10.35 -9.94,21.5 -5.3,13.85 -10.98,26.16 c -1.52,3.3 -2.79,7.08 -4.89,10.51 q -3.09,5.03 -2.4,11.73 a 1.06,1.06 0 0 0 1.57,0.82 z m 350.9,-76.1936 a 0.21,1.84 89.8 0 0 1.8407,0.2036 0.21,1.84 89.8 0 0 1.8393,-0.2164 0.21,1.84 89.8 0 0 -1.8407,-0.2036 0.21,1.84 89.8 0 0 -1.8393,0.2164 z m -669.4,57.8936 c -0.41,-16.48 0.29,-31.76 1.08,-55.51 a 0.17,0.18 1.7 0 0 -0.16,-0.18 h -0.01 a 0.18,0.18 0 0 0 -0.19,0.17 q -2.33,32.14 -0.97,63.61 0.19,4.38 1.87,10.42 a 1.1,1.11 2.7 0 0 0.66,0.73 q 3.43,1.36 7.26,1.45 17.66,0.42 32.53,-0.15 c 5.2,-0.2 11.83,-0.93 15.84,-3.92 7.57,-5.65 12.29,-14.56 10,-24.33 q -0.33,-1.37 -2.32,-6.15 c -2.79,-6.68 -2.06,-11.85 -0.9,-19.24 q 0.14,-0.89 -0.69,-6.41 c -0.97,-6.5 -4.39,-11.41 -10.02,-14.73 q -0.11,-0.06 -0.02,0.01 3.32,2.6 5.88,6.31 a 0.02,0.02 0 0 1 -0.01,0.03 q -0.02,0 -0.04,0 a 0.11,0.01 49.7 0 1 -0.07,-0.07 c -4.84,-5.59 -13.29,-8.88 -20.37,-9.52 -7.58,-0.69 -18.03,-0.52 -25.87,-0.24 q -5.99,0.22 -10.99,1.33 a 1.38,1.36 88.2 0 0 -1.06,1.14 q -0.38,2.5 -0.44,5.58 c -0.34,16.73 -0.93,33.05 -0.68,49.66 a 0.15025372,0.16027063 43.5 0 1 -0.31,0.01 z m 537.69,18.39 14.84,-0.23 a 2.01,2.34 40.7 0 0 0.46,-0.07 q 2.45,-0.65 3.11,-2.85 2.12,-7.05 5.26,-12.8 a 0.73,0.74 14.6 0 1 0.64,-0.38 h 28.54 a 0.99,0.98 78 0 1 0.9,0.59 q 2.66,6 3.8,9.1 1.41,3.81 2.72,5.02 c 2.86,2.64 6.51,1.1 9.52,1.24 q 1.18,0.06 6.86,0.06 1.29,0 0.74,-2.35 -0.92,-9.79 -3.99,-17.29 -0.77,-1.9 -4.36,-9.36 c -2.74,-5.7 -4.72,-11.14 -7.43,-16.95 -1.39,-2.99 -3.68,-5.6 -4.99,-8.94 q -5.42,-13.81 -6.7,-17.12 l -0.04,-0.13 q 0.02,-0.03 0.03,-0.07 a 0.17,0.16 45.2 0 1 0.3,0.01 l 8.23,20.59 a 0.27,0.14 67.7 0 0 0.23,0.19 l 0.14,0.09 a 0.28,0.29 5 0 0 0.41,-0.35 l -8.05,-20 a 2.55,2.53 3.3 0 0 -1.12,-1.25 c -6.72,-3.71 -14.07,-3.09 -21.31,-1.03 a 2.97,3.14 20.5 0 0 -1,0.49 q -1.31,0.98 -3.01,5.09 -6.48,15.67 -14.56,33.89 c -3.35,7.54 -5.85,14.17 -9.92,24.04 q -1.77,4.3 -0.25,10.77 z m -590.1,-72.81 a 1.24,1.24 0 0 0 -1.24,-1.24 h -15 a 1.24,1.24 0 0 0 -1.24,1.24 v 71.54 a 1.24,1.24 0 0 0 1.24,1.24 h 15 a 1.24,1.24 0 0 0 1.24,-1.24 z m 510.9,0.02 a 1.26,1.26 0 0 0 -1.26,-1.26 h -14.92 a 1.26,1.26 0 0 0 -1.26,1.26 v 71.49 a 1.26,1.26 0 0 0 1.26,1.26 h 50.73 a 1.26,1.26 0 0 0 1.26,-1.26 v -12.35 a 1.26,1.26 0 0 0 -1.26,-1.26 h -33.29 a 1.26,1.26 0 0 1 -1.26,-1.26 z m -243.58,24.59 q 4.13,-10.32 -2.1,-20.01 a 0.09,0.09 0 0 0 -0.14,-0.02 l -0.25,0.23 a 0.23,0.24 56.2 0 0 -0.06,0.28 q 4.97,9.3 1.99,19.4 a 0.24,0.24 0 0 0 0.15,0.3 h 0.01 a 0.32,0.32 0 0 0 0.4,-0.18 z m 479.43,-10.54 q 0.16,-0.08 0.18,-0.33 a 0.32,0.27 37.5 0 0 -0.04,-0.18 q -3.26,-5.84 -3.52,-5.7 -0.26,0.14 2.87,6.05 a 0.32,0.27 85.4 0 0 0.13,0.14 q 0.21,0.11 0.38,0.02 z"
     id="path39" />
  <path
     fill="#303c40"
     d="m 155.5901,787.58111 c -3.57,0.02 -12.15,-1.04 -14.54,1.49 -7.96,8.44 -13.09,14.5 -18.77,20.03 q -3.89,3.79 -6.26,8.57 a 0.95,0.95 0 0 1 -1.68,0.02 q -0.22,-0.4 -0.24,-1.31 -0.09,-4.05 0.21,-27.03 a 1.54,1.54 0 0 0 -1.54,-1.56 H 97.750104 a 1.17,1.17 0 0 0 -1.17,1.18 q 0.14,16.81 -0.01,53.66 -0.04,9.87 0.51,18 0.08,1.08 0.88,1.15 l -1,-0.22 a 0.89,0.89 0 0 1 -0.67,-0.62 q -1.9,-6.63 -2,-11.6 -0.5,-23.45 -0.13,-36.35 c 0.12,-4.47 1.04,-9.74 1.06,-14.5 q 0.03,-6.31 0.56,-10.83 a 0.63,0.66 85 0 1 0.47,-0.54 q 9.469996,-2.67 18.819996,-0.32 a 1.64,1.64 0 0 1 1.22,1.4 q 1.16,9.59 1.68,12.51 0.46,2.62 2.2,4.33 a 0.76,0.77 51.4 0 0 0.95,0.1 c 6.42,-4.12 11.42,-10.46 16.78,-16.04 q 3.24,-3.37 7.4,-4.02 8.41,-1.33 16.82,0.67 a 0.87,0.86 1.1 0 1 0.64,0.66 q 0.61,2.92 0.01,5.78 a 0.05,0.08 3.6 0 1 -0.04,0.06 q -0.02,0 -0.03,0 a 0.02,0.04 80.2 0 1 -0.05,-0.01 l 0.11,-4.85 a 1.3,1.32 2.3 0 0 -1.22,-1.34 l -6.29,-0.41 a 0.22,0.19 28.1 0 0 -0.14,0.03 q -0.02,0.01 -0.03,0.02 a 0.01,0.01 0 0 0 0,0.02 q 3.42,0.52 6.69,1.62 a 0.14,0.14 0 0 1 0.09,0.17 0.13,0.14 15.7 0 1 -0.16,0.1 q -3.15,-0.81 -6.11,-0.02 z"
     id="path40" />
  <path
     fill="#303c40"
     d="m 823.1701,792.06111 q -4.62,-3.97 -8.28,-4.7 -1.32,-0.27 -9.93,-0.28 c -6.37,-0.01 -10.37,1.96 -14.76,5.85 -5.44,4.82 -5.44,10.26 -5.35,17.02 l 0.43,9.75 a 1.15,1.16 64 0 1 -0.29,0.84 q -1.64,1.83 -4.81,5.36 -8.48,9.43 -4.08,22.92 2.44,7.5 8.61,11.31 a 0.46,0.47 32.5 0 1 0.14,0.65 v 0.01 a 0.45,0.46 33.5 0 1 -0.62,0.13 q -9.48,-6.32 -10.51,-18.59 c -0.7,-8.43 2.18,-12.69 7.01,-19.76 q 1.85,-2.7 1.63,-8.42 c -0.24,-6.37 -0.6,-9.52 0.64,-14.26 2.34,-8.97 10.6,-14.31 19.68,-15.09 8.05,-0.68 15.47,0.23 20.49,7.26 z"
     id="path41" />
  <path
     fill="#303c40"
     d="m 472.0001,861.69111 0.04,-57.36 a 0.85,0.85 0 0 1 0.85,-0.85 h 20.86 a 1.08,1.09 0 0 0 1.08,-1.09 v -13.48 a 1.31,1.31 0 0 0 -1.31,-1.31 h -58.73 a 1.74,1.74 0 0 0 -1.74,1.73 v 2.26 l -0.01,10.76 a 0.05,0.05 0 0 1 -0.09,0.01 q -1.34,-7.04 -0.62,-14.31 a 1.7,1.7 0 0 1 1.32,-1.49 q 8.11,-1.86 17.58,-1.78 c 6.33,0.05 14.87,-0.04 31.17,-0.18 q 8.64,-0.07 13.31,2.76 a 0.97,0.98 12.6 0 1 0.46,0.73 q 0.74,7.56 -0.28,14.91 a 0.94,0.93 84.3 0 1 -0.61,0.75 c -6.69,2.36 -15.03,2.12 -19.95,2.42 a 0.57,0.56 88.9 0 0 -0.53,0.56 q -0.05,11.56 -0.07,38.39 0,8.06 -0.63,11.39 -0.32,1.68 -2.1,5.18 z"
     id="path42" />
  <path
     fill="#303c40"
     d="m 1181.4801,785.13111 a 0.11,0.11 0 0 1 0.1,-0.12 h 0.2 a 0.56,13.15 87.8 0 1 13.17,0.05 0.56,13.15 87.8 0 1 -13.12,1.07 h -0.2 a 0.11,0.11 0 0 1 -0.12,-0.1 z"
     id="path43" />
  <path
     fill="#303c40"
     d="m 1293.9501,820.41111 q -0.21,-1.28 0,-2.37 a 0.51,0.51 0 0 1 0.76,-0.34 q 2.73,1.64 3.94,3.51 9.21,14.31 10.48,16.2 c 1.55,2.29 2.35,4.25 3.55,7.07 a 1.35,1.34 59.3 0 0 2.07,0.53 q 1.78,-1.42 2.83,-2.98 7.56,-11.26 11.16,-16.95 c 1.52,-2.39 2.44,-5.49 3.69,-7.08 a 1.14,1.14 0 0 1 2.03,0.71 v 41.62 a 1.36,1.37 0 0 0 1.36,1.37 h 14.12 a 1.91,1.91 0 0 0 1.91,-1.91 v -70.68 a 1.27,1.27 0 0 0 -1.21,-1.27 q -3.71,-0.2 -11.96,-0.34 -4.66,-0.09 -6.93,3.62 -11.51,18.75 -14.84,24.01 -0.98,1.55 -1.9,2.47 a 0.78,0.78 0 0 1 -1.27,-0.26 q -1.62,-4.07 -3.77,-7.51 -10.21,-16.26 -13.02,-20.87 a 2.53,2.54 74.4 0 0 -2.17,-1.22 h -15.68 a 1.5,1.5 0 0 0 -1.5,1.49 q -0.21,30.5 0,66.9 0.02,3.14 0.54,5.82 l -0.3,0.04 a 0.55,0.55 0 0 1 -0.52,-0.26 q -2.32,-3.98 -2.56,-9.61 c -0.42,-10.13 0.16,-22.62 -0.04,-32.02 q -0.36,-17.24 -0.38,-17.94 -0.22,-8.06 2.81,-14.86 a 1.3,1.3 0 0 1 1.19,-0.78 q 6.57,-0.03 11.75,0.36 c 6.51,0.48 8.96,2.37 12.42,7.88 q 4.98,7.9 10.04,14.65 a 0.84,0.83 59.7 0 0 1,0.27 q 4.08,-1.78 6.5,-5.69 2.31,-3.74 7.37,-12.09 c 4.85,-8.02 14.93,-8.32 22.74,-5.58 3.79,1.33 4.6,5.72 4.62,9.69 q 0.1,26.12 -0.25,53.83 -0.1,7.86 -2.7,12 a 0.82,0.82 0 0 1 -0.7,0.39 q -4.69,0.01 -12.91,0.4 c -5.52,0.26 -6.32,-5.55 -6.56,-9.8 -0.48,-8.52 -0.16,-15.89 -1.3,-22.91 a 0.7,0.7 0 0 0 -1.26,-0.29 q -3.59,5 -6.72,9.7 -3.46,5.2 -9.33,6.57 a 0.91,0.92 60.9 0 1 -0.86,-0.24 q -2.81,-2.85 -4.79,-5.97 -5.62,-8.87 -9.47,-15.63 -1.03,-1.83 -3.98,-3.65 z"
     id="path44" />
  <path
     fill="#303c40"
     d="m 272.6601,861.69111 q 1.13,-0.25 1.13,-1.06 0.09,-33.79 0.04,-71.56 a 1.34,1.35 0 0 0 -1.34,-1.35 h -14.56 a 1.57,1.57 0 0 0 -1.57,1.57 v 26.72 a 0.66,0.66 0 0 1 -0.66,0.66 h -26.62 a 0.77,0.77 0 0 1 -0.77,-0.77 v -26.73 a 1.45,1.46 0 0 0 -1.45,-1.46 h -14.66 a 1.4,1.41 0 0 0 -1.4,1.41 v 71.23 a 1.41,1.41 0 0 0 1.41,1.41 h 5.25 l -5.53,0.19 a 1.68,1.69 82 0 1 -1.7,-1.27 q -0.79,-3.1 -1.09,-8.07 -0.47,-7.89 -0.41,-15.13 0.22,-23.41 0.39,-36.52 0.09,-6.94 0.92,-13.64 a 0.9,0.91 86.7 0 1 0.68,-0.76 q 9.98,-2.45 19.38,0.5 a 0.84,0.85 3.4 0 1 0.58,0.66 q 0.89,5.02 0.91,5.97 0.42,16.16 0.65,19.45 a 0.75,0.75 0 0 0 0.73,0.71 l 18.49,0.68 a 1.86,1.87 3.5 0 0 1.93,-1.71 c 0.6,-7.29 0.14,-16.71 2.03,-25.56 a 0.88,0.89 86.8 0 1 0.57,-0.63 c 5.89,-1.99 14.36,-2.3 19.89,0.88 a 0.95,0.94 13 0 1 0.47,0.74 q 0.42,4.6 0.43,5.25 0.13,35.75 -0.04,55.11 -0.06,6.78 -1.45,12.6 a 0.93,0.92 87.9 0 1 -0.61,0.67 q -0.91,0.32 -2.02,-0.19 z"
     id="path45" />
  <path
     fill="#303c40"
     d="m 399.3401,861.48111 q -0.54,-4.21 -2.48,-8.25 -3.26,-6.78 -5.23,-11.55 -10.32,-24.89 -22.68,-53.02 a 2.61,2.62 78.4 0 0 -2.38,-1.56 l -11,-0.03 a 0.23,0.11 18.4 0 0 -0.07,0.01 c -2.98,0.8 -4.13,3.34 -5.22,5.92 q -13.61,32.39 -26.16,61.31 -1.77,4.08 -2.61,7.41 -0.8,-7.37 1.41,-11.54 c 2.53,-4.77 5.31,-9.89 7.54,-15.34 q 4.41,-10.8 12.77,-30.04 0.08,-0.16 0.08,-0.23 a 0.04,0.04 0 0 0 -0.07,-0.02 l -9.45,20.75 a 0.13,0.13 0 0 1 -0.16,0.06 l -0.25,-0.12 a 0.08,0.08 0 0 1 -0.04,-0.11 c 3.24,-7.42 6.29,-15.53 9.06,-21.38 q 2.52,-5.29 4.84,-11.58 c 2.89,-7.85 11.88,-7.64 19.06,-7.35 a 0.25,0.25 0 0 1 0.24,0.25 v 0.29 a 0.09,0.09 0 0 1 -0.09,0.09 l -9.35,-0.04 a 0.1,0.07 9.2 0 0 -0.08,0.04 q 0,0.02 -0.01,0.03 a 0.11,0.08 11 0 0 0.11,0.12 q 3.45,0.17 6.65,0.3 7.18,0.28 9.99,6.69 c 8.18,18.58 15.96,38.41 23.36,54.57 q 3.17,6.92 2.83,13.78 a 0.67,0.69 64.3 0 1 -0.14,0.38 q -0.26,0.37 -0.47,0.16 z"
     id="path46" />
  <path
     fill="#303c40"
     d="m 1423.3901,861.64111 q 0.68,-0.67 0.68,-1.21 -0.06,-35.52 0.06,-71.31 a 1.43,1.43 0 0 0 -1.43,-1.43 h -14.38 a 1.37,1.37 0 0 0 -1.37,1.37 l -0.02,68.33 q -1.96,-5.72 -2.14,-11.59 0.05,0.51 -0.09,0.77 a 0.14,0.14 0 0 1 -0.27,-0.07 v -53.99 a 0.11,0.11 0 0 0 -0.11,-0.11 q -0.34,0 -0.33,0.48 0.29,27.32 0.43,64.14 a 0.18,0.18 0 0 1 -0.35,0.04 q -0.49,-1.89 -0.49,-2.88 -0.03,-32.23 -0.22,-53.95 c -0.04,-4.14 0.07,-10.46 3.97,-13.49 3.69,-2.86 13.01,-1.52 17.26,0 a 1.53,1.53 0 0 1 1.02,1.44 q 0.42,60.67 0.35,64.1 -0.06,3.79 -1.29,8.96 a 0.49,0.48 12.7 0 1 -0.58,0.36 q -0.39,-0.08 -0.7,0.04 z"
     id="path47" />
  <path
     fill="#303c40"
     d="m 1009.9201,859.14111 -29.85,-70.13 a 2.86,2.86 0 0 0 -2.63,-1.74 h -12.21 a 2.72,2.73 11.7 0 0 -2.5,1.65 q -18.33,43.05 -30.23,70.72 -0.69,1.61 0.18,2.06 l -0.55,0.3 a 1.06,1.06 0 0 1 -1.57,-0.82 q -0.69,-6.7 2.4,-11.73 c 2.1,-3.43 3.37,-7.21 4.89,-10.51 q 5.68,-12.31 10.98,-26.16 4.26,-11.15 9.94,-21.5 c 3.51,-6.41 10.33,-6.35 16.65,-5.59 5.77,0.69 7.31,3.66 10.19,9.16 3.09,5.92 4.8,11.77 7.18,17.86 q 4.57,11.65 12.56,28.49 4,8.45 4.57,17.94 z"
     id="path48" />
  <ellipse
     fill="#303c40"
     cx="-1282.6704"
     cy="-789.98328"
     transform="rotate(179.8)"
     rx="1.84"
     ry="0.20999999"
     id="ellipse48" />
  <path
     fill="#303c40"
     d="m 614.4901,843.39111 c -0.25,-16.61 0.34,-32.93 0.68,-49.66 q 0.06,-3.08 0.44,-5.58 a 1.38,1.36 88.2 0 1 1.06,-1.14 q 5,-1.11 10.99,-1.33 c 7.84,-0.28 18.29,-0.45 25.87,0.24 7.08,0.64 15.53,3.93 20.37,9.52 a 0.11,0.01 49.7 0 0 0.07,0.07 q 0.02,0 0.04,0 a 0.02,0.02 0 0 0 0.01,-0.03 q -2.56,-3.71 -5.88,-6.31 -0.09,-0.07 0.02,-0.01 c 5.63,3.32 9.05,8.23 10.02,14.73 q 0.83,5.52 0.69,6.41 c -1.16,7.39 -1.89,12.56 0.9,19.24 q 1.99,4.78 2.32,6.15 c 2.29,9.77 -2.43,18.68 -10,24.33 -4.01,2.99 -10.64,3.72 -15.84,3.92 q -14.87,0.57 -32.53,0.15 -3.83,-0.09 -7.26,-1.45 a 1.1,1.11 2.7 0 1 -0.66,-0.73 q -1.68,-6.04 -1.87,-10.42 -1.36,-31.47 0.97,-63.61 a 0.18,0.18 0 0 1 0.19,-0.17 h 0.01 a 0.17,0.18 1.7 0 1 0.16,0.18 c -0.79,23.75 -1.49,39.03 -1.08,55.51 a 0.15025372,0.16027063 43.5 0 0 0.31,-0.01 z m 3.14,18.3 q 15.81,0.22 36.04,-0.04 5.04,-0.07 10.23,-1.06 c 7.71,-1.46 15.48,-8.1 15.96,-16.46 0.22,-3.75 0.45,-7.95 -1.14,-10.78 q -3.54,-6.28 -9.84,-9.31 a 1.06,1.07 29.2 0 1 -0.43,-1.54 c 1.64,-2.51 4.33,-4.44 5.54,-6.81 4.05,-7.93 2.44,-17.66 -5.09,-22.79 -6.46,-4.41 -11.32,-5.23 -18.73,-5.32 q -16.55,-0.2 -32.49,0.39 a 1.02,1.03 88.8 0 0 -0.99,1.02 v 71.75 a 0.95,0.95 0 0 0 0.94,0.95 z m 60.75,-51.35 c -2.92,7.65 -4.28,12.64 0.67,19.55 a 0.29,0.29 0 0 0 0.42,0.06 l 0.05,-0.03 a 0.25,0.25 0 0 0 0.06,-0.34 c -4.17,-6.43 -2.61,-11.69 -0.77,-19.07 a 0.24,0.24 0 0 0 -0.16,-0.29 l -0.01,-0.01 a 0.21,0.21 0 0 0 -0.26,0.13 z"
     id="path49" />
  <path
     fill="#303c40"
     d="m 1229.2601,859.12111 q -14.48,-33.95 -28.98,-67.97 c -1.06,-2.49 -1.93,-3.77 -4.61,-3.8 q -6.15,-0.05 -10.24,-0.36 a 2.77,2.75 18.7 0 0 -2.51,1.23 q -1.04,1.56 -2.15,4.17 -14.56,34.07 -27.6,63.99 -0.98,2.26 -1.3,5.41 -1.52,-6.47 0.25,-10.77 c 4.07,-9.87 6.57,-16.5 9.92,-24.04 q 8.08,-18.22 14.56,-33.89 1.7,-4.11 3.01,-5.09 a 2.97,3.14 20.5 0 1 1,-0.49 c 7.24,-2.06 14.59,-2.68 21.31,1.03 a 2.55,2.53 3.3 0 1 1.12,1.25 l 8.05,20 a 0.28,0.29 5 0 1 -0.41,0.35 l -0.14,-0.09 a 0.27,0.14 67.7 0 1 -0.23,-0.19 l -8.23,-20.59 a 0.17,0.16 45.2 0 0 -0.3,-0.01 q -0.01,0.04 -0.03,0.07 l 0.04,0.13 q 1.28,3.31 6.7,17.12 c 1.31,3.34 3.6,5.95 4.99,8.94 2.71,5.81 4.69,11.25 7.43,16.95 q 3.59,7.46 4.36,9.36 3.07,7.5 3.99,17.29 z"
     id="path50" />
  <path
     fill="#303c40"
     d="m 162.8401,859.31111 -29.55,-39.15 a 0.94,0.95 48.4 0 1 0.08,-1.24 l 29.44,-30.11 q -1.34,2.28 -2.59,4.2 -1.15,1.77 -3.06,3.85 c -5.19,5.65 -10.03,11.34 -16.21,17.36 -2.85,2.78 -1.51,7.49 0.23,10.44 6.03,10.21 12.27,17.96 18.21,26.01 q 2.13,2.89 3.45,8.64 z"
     id="path51" />
  <path
     fill="#303c40"
     d="m 829.0901,813.59111 a 0.32,0.32 0 0 1 -0.4,0.18 h -0.01 a 0.24,0.24 0 0 1 -0.15,-0.3 q 2.98,-10.1 -1.99,-19.4 a 0.23,0.24 56.2 0 1 0.06,-0.28 l 0.25,-0.23 a 0.09,0.09 0 0 1 0.14,0.02 q 6.23,9.69 2.1,20.01 z"
     id="path52" />
  <path
     fill="#303c40"
     d="m 1305.1401,796.84111 q 0.26,-0.14 3.52,5.7 a 0.32,0.27 37.5 0 1 0.04,0.18 q -0.02,0.25 -0.18,0.33 -0.17,0.09 -0.38,-0.02 a 0.32,0.27 85.4 0 1 -0.13,-0.14 q -3.13,-5.91 -2.87,-6.05 z"
     id="path53" />
  <path
     fill="#303c40"
     d="m 799.7601,805.49111 q 2.62,-4.1 6.12,-6.13 a 1.89,1.89 0 0 1 1.78,-0.07 c 2.88,1.39 6.25,4.2 6.15,7.72 -0.1,3.43 -5.17,7.11 -8.22,8.01 a 1.75,1.75 0 0 1 -2.18,-1.21 q -1.22,-4.39 -3.58,-7.23 a 0.93,0.93 0 0 1 -0.07,-1.09 z"
     id="path54" />
  <path
     fill="#303c40"
     d="m 632.6401,804.11111 a 1.16,1.16 0 0 1 1.17,-1.15 l 16.84,0.09 a 8.18,7.22 0.3 0 1 8.14,7.26 v 0.08 a 8.18,7.22 0.3 0 1 -8.22,7.18 l -16.84,-0.09 a 1.16,1.16 0 0 1 -1.15,-1.17 z m 19.97,5.28 a 2.41,2.41 0 0 0 -2.42,-2.41 c -5.66,0.03 -10.56,0.39 -12.25,5.95 a 1.23,1.22 8.4 0 0 1.18,1.58 h 11.92 a 1.57,1.57 0 0 0 1.57,-1.57 z"
     id="path55" />
  <path
     fill="#576970"
     d="m 652.6101,809.39111 v 3.55 a 1.57,1.57 0 0 1 -1.57,1.57 h -11.92 a 1.23,1.22 8.4 0 1 -1.18,-1.58 c 1.69,-5.56 6.59,-5.92 12.25,-5.95 a 2.41,2.41 0 0 1 2.42,2.41 z"
     id="path56" />
  <path
     fill="#303c40"
     d="m 351.9801,830.17111 q 2.6,-7.98 4.12,-11.62 c 1.37,-3.29 1.75,-5.85 2.1,-8.97 a 0.57,0.56 24.3 0 1 0.94,-0.35 c 3.24,2.94 4.25,6.26 5.92,11.24 a 8.34,8.32 19.4 0 0 0.89,1.85 c 1.5,2.32 2.83,4.96 2.53,7.6 a 0.83,0.82 3.5 0 1 -0.82,0.72 h -15.34 a 0.36,0.36 0 0 1 -0.34,-0.47 z"
     id="path57" />
  <path
     fill="#303c40"
     d="m 962.9501,830.59111 a 0.53,0.53 0 0 1 -0.49,-0.72 c 2.12,-5.33 3.66,-10.83 6.13,-15.71 1.07,-2.13 2,-4.31 2.84,-4.82 a 0.49,0.49 0 0 1 0.72,0.26 l 7.29,20.02 a 0.72,0.72 0 0 1 -0.68,0.97 z"
     id="path58" />
  <path
     fill="#576970"
     d="m 678.3801,810.34111 a 0.21,0.21 0 0 1 0.26,-0.13 l 0.01,0.01 a 0.24,0.24 0 0 1 0.16,0.29 c -1.84,7.38 -3.4,12.64 0.77,19.07 a 0.25,0.25 0 0 1 -0.06,0.34 l -0.05,0.03 a 0.29,0.29 0 0 1 -0.42,-0.06 c -4.95,-6.91 -3.59,-11.9 -0.67,-19.55 z"
     id="path59" />
  <path
     fill="#303c40"
     d="m 1192.6701,811.52111 c 0.49,1.77 0.63,4.11 1.12,5.39 q 1.51,3.99 3.29,7.29 1.29,2.39 1.24,5.08 a 1.37,1.38 0.2 0 1 -1.36,1.36 l -13.22,0.09 a 1.17,1.18 85.4 0 1 -1.16,-0.98 q -0.1,-0.63 0.26,-2.19 c 0.82,-3.57 2.82,-6.85 4.01,-10.58 0.95,-2.95 1.1,-6.21 5.07,-6.06 a 0.82,0.82 0 0 1 0.75,0.6 z"
     id="path60" />
  <path
     fill="#576970"
     d="m 632.8901,832.11111 a 0.87,0.87 0 0 1 0.88,-0.86 l 19.94,0.21 a 8.87,6.27 0.6 0 1 8.8,6.37 l -0.03,3 a 8.87,6.27 0.6 0 1 -8.93,6.17 l -19.94,-0.21 a 0.87,0.87 0 0 1 -0.86,-0.88 z"
     id="path61" />
  <path
     fill="#303c40"
     d="m 811.2401,843.56111 a 0.5,0.51 45.4 0 1 -0.01,0.72 q -5.47,5.39 -12.56,4.09 a 2.95,3 70.3 0 1 -1.32,-0.61 q -3.53,-2.82 -5.23,-6.73 a 1.23,1.25 45.6 0 1 0.02,-1.02 q 2.12,-4.63 5.69,-7.38 a 2.01,2.01 0 0 1 2.65,0.17 z"
     id="path62" />
  <path
     fill="#303c40"
     d="m 843.1501,854.29111 -9.87,-9.2 a 2.12,2.12 0 0 1 -0.14,-2.96 l 2.72,-3.03 -1.64,4.74 a 0.81,0.81 0 0 0 0.22,0.87 l 1.62,1.52 a 0.15,0.13 44.8 0 0 0.19,0.01 q 0.03,-0.02 0.04,-0.05 a 0.15,0.16 28.4 0 0 -0.05,-0.19 q -1.37,-1.01 -1.02,-3.48 a 2,1.93 69.6 0 1 0.41,-0.94 l 2.43,-3.06 a 0.24,0.25 37.4 0 1 0.34,-0.05 v 0.01 a 0.25,0.25 0 0 1 0.05,0.33 l -3.07,4.54 a 1.02,1.02 0 0 0 0.28,1.42 q 4.39,2.93 7.49,9.52 z"
     id="path63" />
  <path
     fill="#303c40"
     d="m 381.7901,861.02111 q -2.97,-2.81 -5.87,-8.88 -1.7,-3.55 -6.57,-3.85 -11.86,-0.74 -22,-0.04 a 0.77,0.77 0 0 0 -0.67,0.49 q -0.76,2.05 -2.72,6.41 -2.04,4.56 -5.85,6.52 4.14,-6.33 6.25,-14.75 a 1.9,1.9 0 0 1 1.84,-1.44 h 28.64 a 1.11,1.1 78.9 0 1 1.02,0.69 z"
     id="path64" />
  <path
     fill="#303c40"
     d="m 968.9901,845.53111 q -1.8,0.55 -3.63,-0.02 z"
     id="path65" />
  <path
     fill="#303c40"
     d="m 973.9701,845.53111 q -1.36,0.51 -2.6,-0.02 z"
     id="path66" />
  <path
     fill="#303c40"
     d="m 977.2201,845.52111 q -1.07,0.52 -2.36,0.04 z"
     id="path67" />
  <path
     fill="#303c40"
     d="m 260.9801,861.75111 q -0.65,0.58 -1.08,-0.03 z"
     id="path68" />
</svg>
